<?xml version="1.0" encoding="UTF-8"?>
<svg width="16px" height="16px" viewBox="0 0 16 16" version="1.1" xmlns="http://www.w3.org/2000/svg" xmlns:xlink="http://www.w3.org/1999/xlink">
    <!-- Generator: Sketch 61.1 (89650) - https://sketch.com -->
    <title>s-API网关管理系统</title>
    <desc>Created with Sketch.</desc>
    <g id="style02" stroke="none" stroke-width="1" fill="none" fill-rule="evenodd">
        <g id="列表-应用弹窗备份" transform="translate(-22.000000, -740.000000)">
            <g id="编组-18">
                <g id="编组-15" transform="translate(19.000000, 614.000000)">
                    <g id="s-API网关管理系统" transform="translate(3.000000, 126.000000)">
                        <g id="编组-5" fill="#FFFFFF">
                            <rect id="矩形" x="0" y="0" width="16" height="16" rx="4"></rect>
                        </g>
                        <g id="编组" transform="translate(2.000000, 3.000000)" stroke-linecap="round" stroke-linejoin="round" stroke-width="0.8">
                            <path d="M9.38352,3.857888 C10.7792,3.857888 11.84,5.061088 11.84,6.504608 C11.84,7.948448 10.72352,9.151488 9.38352,9.151488 L3.18656,9.151488 C1.79088,9.151488 0.67424,7.948448 0.67424,6.504608 C0.67424,5.061088 1.79088,3.857888 3.13072,3.857888 C3.13072,2.053248 4.52656,0.549408 6.25712,0.549408 C7.98784,0.549408 9.38352,2.053248 9.38352,3.857888 Z" id="Stroke-5" stroke="#226EE7"></path>
                            <polygon id="Stroke-7" stroke="#FFBB33" points="5.978048 4.278992 4.414848 6.444592 7.931968 6.444592"></polygon>
                            <path d="M5.140624,3.23 C5.140624,3.7284 5.515504,4.1324 5.978064,4.1324 C6.440624,4.1324 6.815504,3.7284 6.815504,3.23 C6.815504,2.9076 6.655824,2.60984 6.396784,2.44856 C6.137584,2.28728 5.818384,2.28728 5.559344,2.44856 C5.300144,2.60984 5.140624,2.9076 5.140624,3.23 Z" id="Stroke-9" stroke="#FFBB33"></path>
                            <path d="M7.932032,6.865552 C7.932032,7.187952 8.091552,7.485872 8.350752,7.647152 C8.609792,7.808272 8.928992,7.808272 9.188192,7.647152 C9.447392,7.485872 9.606912,7.187952 9.606912,6.865552 C9.606912,6.543152 9.447392,6.245232 9.188192,6.084112 C8.928992,5.922832 8.609792,5.922832 8.350752,6.084112 C8.091552,6.245232 7.932032,6.543152 7.932032,6.865552 Z" id="Stroke-11" stroke="#FFBB33"></path>
                            <path d="M2.698128,6.865552 C2.698128,7.187952 2.857808,7.485872 3.116848,7.647152 C3.375888,7.808272 3.695248,7.808272 3.954448,7.647152 C4.213488,7.485872 4.373008,7.187952 4.373008,6.865552 C4.373008,6.543152 4.213488,6.245232 3.954448,6.084112 C3.695248,5.922832 3.375888,5.922832 3.116848,6.084112 C2.857808,6.245232 2.698128,6.543152 2.698128,6.865552 Z" id="Stroke-13" stroke="#FFBB33"></path>
                        </g>
                    </g>
                </g>
            </g>
        </g>
    </g>
</svg>