<?xml version="1.0" encoding="UTF-8"?>
<svg width="16px" height="16px" viewBox="0 0 16 16" version="1.1" xmlns="http://www.w3.org/2000/svg" xmlns:xlink="http://www.w3.org/1999/xlink">
    <!-- Generator: Sketch 61.1 (89650) - https://sketch.com -->
    <title>s_项目协同</title>
    <desc>Created with Sketch.</desc>
    <g id="style02" stroke="none" stroke-width="1" fill="none" fill-rule="evenodd">
        <g id="应用-icon" transform="translate(-23.000000, -785.000000)">
            <g id="编组-18">
                <g id="编组-15" transform="translate(19.000000, 544.000000)">
                    <g id="s_项目协同" transform="translate(4.000000, 241.000000)">
                        <g id="s-Edep平台" fill="#FFFFFF">
                            <g id="编组-6">
                                <rect id="矩形" x="0" y="0" width="16" height="16" rx="4"></rect>
                            </g>
                        </g>
                        <g id="分析,对比,协作,流转,循环" transform="translate(2.500000, 2.000000)" fill-rule="nonzero">
                            <rect id="矩形" fill="#69D167" opacity="0" x="0" y="0" width="12" height="12"></rect>
                            <path d="M11.034132,4.75786963 C10.9731959,4.73794819 10.9274937,4.68638682 10.9122597,4.62310698 C10.334538,2.18683253 8.14435192,0.375153691 5.53112824,0.375153691 C5.11160624,0.375153691 4.70145902,0.42202766 4.30888955,0.511088191 C4.24326599,0.526322227 4.17529874,0.505228945 4.12959662,0.456011285 C3.87764905,0.180626719 3.5167195,0.00602119922 3.11594708,0.000161953125 C2.34135477,-0.0115565391 1.69683772,0.61421093 1.68746292,1.38880323 C1.68629107,1.51653479 1.70152512,1.63957896 1.7319932,1.75676387 C1.74839909,1.82121558 1.7273058,1.88918283 1.68043184,1.9360568 C0.643345301,2.9415034 1.0546875e-07,4.34889427 1.0546875e-07,5.90628183 C1.0546875e-07,7.55390177 0.720687352,9.0339473 1.8632403,10.046425 C1.91714537,10.0944708 1.93823865,10.1671255 1.92066091,10.2362646 C1.89019283,10.3511058 1.8749588,10.4706344 1.8749588,10.5948504 C1.87613065,11.3741301 2.51947584,12.0092724 3.29875555,12 C3.78976036,11.9940383 4.219829,11.7362315 4.46708919,11.3495213 C4.47177659,11.3413183 4.48115139,11.3378028 4.49052618,11.3389746 C4.82801875,11.4034264 5.17488609,11.4362381 5.53112824,11.4362381 C8.00138632,11.4362381 10.0931371,9.81674256 10.8032777,7.58202616 C10.8231992,7.51991816 10.8724168,7.47187234 10.9356967,7.4566383 C11.547402,7.30429791 11.9997357,6.75118509 11.9997357,6.09260585 C11.9997357,5.47152579 11.5954478,4.9430218 11.034132,4.75786963 Z M2.44330564,1.31614859 C2.48783592,0.996233754 2.76204862,0.75014543 3.09368195,0.75014543 C3.19328913,0.75014543 3.28820891,0.772410562 3.37258205,0.812253434 C3.59523339,0.917719863 3.74991749,1.14388676 3.74991749,1.40638097 C3.74991749,1.42747425 3.74874564,1.44856754 3.74640195,1.46848897 C3.71476201,1.80129414 3.43351821,2.06261651 3.09368195,2.06261651 C2.98352813,2.06261651 2.8804054,2.03566398 2.790173,1.98761816 C2.580412,1.87746434 2.4374464,1.65832854 2.4374464,1.40638097 C2.4374464,1.37591289 2.4397901,1.34544482 2.44330564,1.31614859 L2.44330564,1.31614859 Z M3.67491914,11.118667 C3.56476532,11.2018683 3.42883082,11.2499141 3.28117781,11.2499141 C2.92610752,11.2499141 2.63548891,10.9663266 2.62494227,10.6136 L2.62494227,10.5936786 C2.62494227,10.318294 2.79486041,10.0827523 3.03508949,9.98548883 C3.11125969,9.95502075 3.19446097,9.93744302 3.28117781,9.93744302 C3.57765566,9.93744302 3.82960323,10.1354855 3.90928897,10.4061827 C3.92686671,10.465947 3.93741335,10.5292269 3.93741335,10.5936786 C3.93741335,10.808127 3.83429062,10.9979665 3.67491914,11.118667 Z M9.93610932,7.76717834 C9.69588025,8.33669704 9.35018474,8.84762329 8.91074129,9.28706672 C8.4724697,9.72651016 7.96154345,10.0710338 7.39202475,10.3124348 C6.80258461,10.5620386 6.17681715,10.6874265 5.53112824,10.6874265 C5.25222813,10.6874265 4.97684358,10.6639895 4.70731827,10.6171155 C4.69559978,10.6147718 4.68739683,10.6053971 4.68739684,10.5936786 C4.68739684,9.81674256 4.05811383,9.18745955 3.28117781,9.18745955 C2.99290291,9.18745955 2.72454945,9.27417639 2.50189811,9.42300123 C2.4304153,9.47104705 2.33432367,9.4628441 2.27104382,9.40307979 C2.23002909,9.36558061 2.19018622,9.32573774 2.15034335,9.28706672 C1.71089991,8.84762327 1.36637625,8.33669704 1.12497532,7.76717834 C0.875371441,7.1777382 0.749983582,6.55197074 0.749983582,5.90628183 C0.749983582,5.26059292 0.876543293,4.63482546 1.12497532,4.04538533 C1.34997036,3.51219395 1.66636964,3.03056394 2.06714207,2.61104193 L2.075345,2.60283899 C2.13862486,2.53721543 2.23940389,2.52784064 2.31440224,2.5770583 C2.54056914,2.72822685 2.81360999,2.81494369 3.10540044,2.81259998 C3.86593056,2.80674074 4.48935432,2.18683252 4.49872911,1.42630241 L4.49872911,1.39349062 C4.49755726,1.30208639 4.56200897,1.22240065 4.65224136,1.20482291 C4.93934441,1.1520897 5.2323067,1.12513717 5.52995639,1.12513717 C6.17564529,1.12513717 6.80141276,1.25169688 7.3908529,1.50012891 C7.9603716,1.74035798 8.47129785,2.08605349 8.91074129,2.52549694 C9.35018474,2.96494038 9.69470839,3.47586662 9.93610932,4.04538533 C10.0111077,4.22233455 10.0755594,4.40397118 10.1271207,4.58677965 C10.1529014,4.6758402 10.1071993,4.76958812 10.0216543,4.8070873 C9.52947765,5.0262231 9.18612585,5.51957161 9.18612585,6.09260585 C9.18612585,6.62931278 9.48611924,7.09570875 9.92790637,7.33242229 C10.0099358,7.37695255 10.0486068,7.47421603 10.0157951,7.56210472 C9.99235808,7.63241568 9.96540555,7.69921107 9.93610932,7.76717834 L9.93610932,7.76717834 Z M11.0200698,6.5918136 C10.9052286,6.69024893 10.7564038,6.75001324 10.5935167,6.75001324 C10.4693007,6.75001324 10.3532876,6.71485777 10.2536805,6.65509345 C10.0638409,6.54025223 9.93728118,6.33166308 9.93728118,6.0937777 C9.93728118,5.83948643 10.0837623,5.61800693 10.295867,5.50902496 C10.3849276,5.46332284 10.4868784,5.43754215 10.5935167,5.43754215 C10.7728096,5.43754215 10.9368685,5.5101968 11.0552253,5.62855357 C11.1747539,5.74691033 11.2497523,5.91214107 11.2497523,6.0937777 C11.2497523,6.29299206 11.1606917,6.47228498 11.0200698,6.5918136 L11.0200698,6.5918136 Z" id="形状" fill="#5372AC"></path>
                            <path d="M5.62956357,4.12507107 C6.12994317,4.12507107 6.60102655,4.31959804 6.95492501,4.67466834 C7.3099953,5.02856679 7.50452227,5.49965017 7.50452227,6.00002977 C7.50452227,6.50040936 7.3099953,6.97149274 6.95492501,7.32539119 C6.60102655,7.6804615 6.12994318,7.87498846 5.62956357,7.87498846 C5.12918396,7.87498846 4.6581006,7.6804615 4.30420215,7.32539119 C3.94913184,6.97149274 3.75460488,6.50040936 3.75460488,6.00002977 C3.75460488,5.49965017 3.94913184,5.02856679 4.30420215,4.67466834 C4.65927246,4.3207699 5.12918398,4.12507107 5.62956357,4.12507107 Z M5.62956357,3.3750876 C4.17998613,3.3750876 3.00462141,4.55045232 3.00462141,6.00002977 C3.00462141,7.44960721 4.17998613,8.62497193 5.62956357,8.62497193 C7.07914102,8.62497193 8.25450574,7.44960721 8.25450574,6.00002977 C8.25450574,4.55045232 7.07914102,3.3750876 5.62956357,3.3750876 Z" id="形状" fill="#4986E3"></path>
                        </g>
                    </g>
                </g>
            </g>
        </g>
    </g>
</svg>