<?xml version="1.0" encoding="UTF-8"?>
<svg width="16px" height="16px" viewBox="0 0 16 16" version="1.1" xmlns="http://www.w3.org/2000/svg" xmlns:xlink="http://www.w3.org/1999/xlink">
    <!-- Generator: Sketch 61.1 (89650) - https://sketch.com -->
    <title>编组 47</title>
    <desc>Created with Sketch.</desc>
    <g id="style02" stroke="none" stroke-width="1" fill="none" fill-rule="evenodd">
        <g id="应用-icon备份" transform="translate(-335.000000, -182.000000)">
            <g id="编组-47" transform="translate(335.000000, 182.000000)">
                <g id="编组-5" fill="#FFFFFF">
                    <rect id="矩形" x="0" y="0" width="16" height="16" rx="4"></rect>
                </g>
                <g id="编组-48" transform="translate(2.500000, 3.500000)" fill-rule="nonzero">
                    <path d="M10.2668522,1.70675698 L0.735234602,1.70675698 C0.54315378,1.70675698 0.387441508,1.55104424 0.387441508,1.35896341 C0.387441508,1.16688259 0.54315378,1.01117032 0.735234602,1.01117032 L9.1276211,1.01117032 L8.57309979,0.637779653 C8.46895534,0.568821184 8.40978692,0.449311892 8.41808713,0.324682671 C8.42638734,0.20005345 8.50088136,0.0894459731 8.61325063,0.0349071517 C8.7256199,-0.0196316696 8.85860575,-0.00972527442 8.96165423,0.0608604679 L10.4611989,1.07043426 C10.5881975,1.15590954 10.6443743,1.31437377 10.5995704,1.46075432 C10.5547666,1.60713487 10.4195184,1.70700816 10.2664348,1.70675698 L10.2668522,1.70675698 Z" id="路径" fill="#6661FF"></path>
                    <path d="M2.2322752,4.17706178 C2.16317147,4.17706178 2.09564116,4.15643107 2.03834577,4.11779736 L0.538801062,3.10822356 C0.41180254,3.02274828 0.355625744,2.86428405 0.400429584,2.71790351 C0.445233423,2.57152296 0.580481608,2.47164967 0.733565195,2.47190084 L10.2647654,2.47190084 C10.4568462,2.47190084 10.6125585,2.62761359 10.6125585,2.81969441 C10.6125585,3.01177523 10.4568462,3.16748751 10.2647654,3.16748751 L1.8723789,3.16748751 L2.42690021,3.54073906 C2.55389874,3.62621434 2.61007553,3.78467857 2.56527169,3.93105911 C2.52046785,4.07743966 2.38521967,4.17731295 2.23213608,4.17706178 L2.2322752,4.17706178 Z" id="路径" fill="#6661FF"></path>
                    <path d="M10.0291008,9.10153329 L0.970899203,9.10153329 C0.434940628,9.10091998 0.000613313233,8.66659266 0,8.13063409 L0,5.69357831 C0.000536659431,5.15756541 0.434886382,4.72315345 0.970899203,4.72253999 L10.0291008,4.72253999 C10.5651136,4.72315345 10.9994633,5.15756541 11,5.69357831 L11,8.13063409 C10.9993867,8.66659266 10.5650594,9.10091998 10.0291008,9.10153329 Z M0.970899203,5.41812618 C0.818889096,5.41835619 0.695739406,5.54156811 0.695586189,5.69357831 L0.695586189,8.13063409 C0.69581602,8.28258996 0.818943325,8.40571727 0.970899203,8.4059471 L10.0291008,8.4059471 C10.1810567,8.40571727 10.304184,8.28258996 10.3044138,8.13063409 L10.3044138,5.69357831 C10.3042606,5.54156811 10.1811109,5.41835619 10.0291008,5.41812618 L0.970899203,5.41812618 Z M6.45990894,7.91305473 C6.26782812,7.91305473 6.11211585,7.75734245 6.11211585,7.56526163 L6.11211585,6.25881165 C6.11211585,6.06673083 6.26782812,5.91101856 6.45990894,5.91101856 C6.65198976,5.91101856 6.80770204,6.06673083 6.80770204,6.25881165 L6.80770204,7.56526163 C6.80770204,7.75734245 6.65198976,7.91305473 6.45990894,7.91305473 Z M8.44928544,7.91305473 C8.25720462,7.91305473 8.10149235,7.75734245 8.10149235,7.56526163 L8.10149235,6.25881165 C8.10149235,6.06673083 8.25720462,5.91101856 8.44928544,5.91101856 C8.64136627,5.91101856 8.79707854,6.06673083 8.79707854,6.25881165 L8.79707854,7.56526163 C8.79707854,7.75734245 8.64136627,7.91305473 8.44928544,7.91305473 Z M1.82730492,6.9121062 C1.82730492,7.27321815 2.12004399,7.56595722 2.48115594,7.56595722 C2.84226788,7.56595722 3.13500696,7.27321815 3.13500696,6.9121062 C3.13500696,6.55099425 2.84226788,6.25825518 2.48115594,6.25825518 C2.12004399,6.25825518 1.82730492,6.55099425 1.82730492,6.9121062 Z M2.48115594,7.57291308 C2.11620238,7.57291308 1.82034906,7.27705976 1.82034906,6.9121062 C1.82034906,6.54715264 2.11620238,6.25129932 2.48115594,6.25129932 C2.8461095,6.25129932 3.14196282,6.54715264 3.14196282,6.9121062 C3.14150294,7.2768691 2.84591884,7.5724532 2.48115594,7.57291308 Z M2.48115594,6.26521104 C2.12388561,6.26521104 1.83426078,6.55483587 1.83426078,6.9121062 C1.83426078,7.26937653 2.12388561,7.55900136 2.48115594,7.55900136 C2.83842627,7.55900136 3.12805109,7.26937653 3.12805109,6.9121062 C3.12766772,6.55499479 2.83826735,6.26559442 2.48115594,6.26521104 L2.48115594,6.26521104 Z" id="形状" fill="#147AFF"></path>
                </g>
            </g>
        </g>
    </g>
</svg>