<?xml version="1.0" encoding="UTF-8"?>
<svg width="16px" height="16px" viewBox="0 0 16 16" version="1.1" xmlns="http://www.w3.org/2000/svg" xmlns:xlink="http://www.w3.org/1999/xlink">
    <!-- Generator: Sketch 61.1 (89650) - https://sketch.com -->
    <title>s-Edep平台</title>
    <desc>Created with Sketch.</desc>
    <g id="style02" stroke="none" stroke-width="1" fill="none" fill-rule="evenodd">
        <g id="列表-应用弹窗备份" transform="translate(-22.000000, -820.000000)">
            <g id="编组-18">
                <g id="编组-15" transform="translate(19.000000, 614.000000)">
                    <g id="s-Edep平台" transform="translate(3.000000, 206.000000)">
                        <g id="编组-6" fill="#FFFFFF">
                            <rect id="矩形" x="0" y="0" width="16" height="16" rx="4"></rect>
                        </g>
                        <g id="编组-31" transform="translate(1.500000, 2.500000)">
                            <g id="编组" transform="translate(0.000000, 0.500000)" fill="#8476E2">
                                <path d="M6.73637824,9.50583456 L6.73637824,7.77225376 L5.84167744,7.77225376 L5.84167744,9.50583456 L3.15726144,9.50583456 C2.91030144,9.50583456 2.70975424,9.70622496 2.70975424,9.95334176 C2.70975424,10.2004586 2.91030144,10.4006922 3.15726144,10.4006922 L9.42079424,10.4006922 C9.66791104,10.4006922 9.86814464,10.2004586 9.86814464,9.95334176 C9.86814464,9.70622496 9.66791104,9.50583456 9.42079424,9.50583456 L6.73637824,9.50583456 Z" id="Fill-5"></path>
                                <path d="M1.5913312,7.3337312 L10.9866304,7.3337312 L10.9866304,1.0703552 L1.5913312,1.0703552 L1.5913312,7.3337312 Z M1.3675776,0.1754976 C0.9970592,0.1754976 0.6966304,0.4760832 0.6966304,0.8466016 L0.6966304,7.5574848 C0.6966304,7.7354528 0.7671904,7.906208 0.8931008,8.0319616 C1.0190112,8.157872 1.1897664,8.2285888 1.3675776,8.2285888 L11.210384,8.2285888 C11.388352,8.2285888 11.5591072,8.157872 11.6848608,8.0319616 C11.8107712,7.906208 11.881488,7.7354528 11.881488,7.5574848 L11.881488,0.8466016 C11.881488,0.6686336 11.8107712,0.4978784 11.6848608,0.3721248 C11.5591072,0.2462144 11.388352,0.1754976 11.210384,0.1754976 L1.3675776,0.1754976 Z" id="Fill-7"></path>
                            </g>
                            <polyline id="路径-15" stroke="#3366FF" stroke-width="0.6" stroke-linecap="round" transform="translate(8.881986, 4.598547) scale(-1, 1) translate(-8.881986, -4.598547) " points="9.86814464 3 7.89582825 4.7020432 9.86814464 6.19709396"></polyline>
                            <polyline id="路径-15" stroke="#3366FF" stroke-width="0.6" stroke-linecap="round" points="5.47231639 3 3.5 4.7020432 5.47231639 6.19709396"></polyline>
                        </g>
                    </g>
                </g>
            </g>
        </g>
    </g>
</svg>