<?xml version="1.0" encoding="UTF-8"?>
<svg width="16px" height="16px" viewBox="0 0 16 16" version="1.1" xmlns="http://www.w3.org/2000/svg" xmlns:xlink="http://www.w3.org/1999/xlink">
    <!-- Generator: Sketch 61.1 (89650) - https://sketch.com -->
    <title>编组 47</title>
    <desc>Created with Sketch.</desc>
    <g id="style02" stroke="none" stroke-width="1" fill="none" fill-rule="evenodd">
        <g id="应用-icon备份" transform="translate(-339.000000, -68.000000)">
            <g id="s-API网关管理系统" transform="translate(339.000000, 68.000000)">
                <g id="编组-47">
                    <g id="编组-5" fill="#FFFFFF">
                        <rect id="矩形" x="0" y="0" width="16" height="16" rx="4"></rect>
                    </g>
                    <g id="编组-46" transform="translate(2.000000, 2.000000)" fill-rule="nonzero">
                        <path d="M9.89365906,2.11225813 C8.8975775,1.11448344 7.5196425,0.5 6.00906594,0.5 C4.48775281,0.5 3.11225,1.11448344 2.11592656,2.10934219 L2.11080687,2.11225813 C1.11472531,3.10980438 0.5,4.48481 0.5,6.00491375 C0.5,7.51841969 1.11472531,8.89489 2.11080687,9.89365906 L2.11592656,9.89781125 C3.10713031,10.8914472 4.48773937,11.5139528 6.00906594,11.5139528 C7.5196425,11.5139528 8.8975775,10.8953575 9.89365906,9.89781125 L9.89365906,9.89365906 C10.89267,8.89490344 11.5100559,7.51841969 11.5100559,6.00491375 C11.5100559,4.48481 10.8980316,3.10981781 9.90193656,2.11225813 L9.89365906,2.11225813 Z M9.30089062,9.296725 L9.30089062,9.29939906 C8.45111656,10.1440669 7.2923875,10.6627006 6.00906594,10.6627006 C4.71500781,10.6627006 3.55091719,10.1440669 2.70919219,9.29939906 L2.70627625,9.296725 C1.86722531,8.45622281 1.34761062,7.29065406 1.34761062,6.00490031 C1.34761062,4.71351625 1.86722531,3.55090375 2.70627625,2.71307563 L2.70919219,2.71307563 C3.55093062,1.86573375 4.71502125,1.35001594 6.00906594,1.35001594 C7.2923875,1.35001594 8.45110312,1.86572031 9.30089062,2.71307563 C10.1372541,3.55090375 10.6624722,4.71352969 10.6624722,6.00490031 C10.6624722,7.29065406 10.1372541,8.45623625 9.30089062,9.296725 L9.30089062,9.296725 Z" id="形状" fill="#0185EF"></path>
                        <path d="M8.83588594,4.31168125 C8.80004813,4.39068031 8.75444125,4.46700531 8.68933656,4.53821063 C8.58155438,4.63551156 8.4540325,4.70158375 8.31797781,4.73597031 C8.52596344,5.11318781 8.643985,5.54453156 8.643985,6.00467188 C8.643985,6.7381175 8.34990531,7.3979525 7.87126156,7.87515844 L7.86979688,7.87636781 C7.39334344,8.35235094 6.7325275,8.64690094 6.00344906,8.64690094 C5.27193844,8.64690094 4.61282906,8.35235094 4.13784031,7.87636781 L4.13784031,7.87515844 C3.65773188,7.39793906 3.36535875,6.7381175 3.36535875,6.00467188 C3.36535875,5.27728656 3.65771844,4.62039438 4.13784031,4.13880781 C4.61282906,3.66478656 5.271925,3.36681 6.00344906,3.36681 C6.49893,3.36681 6.96101875,3.50701688 7.35675313,3.74354375 C7.39334344,3.61700281 7.45745375,3.49336438 7.5523225,3.40143844 C7.62620188,3.33023313 7.71130156,3.27757156 7.80031156,3.23928813 C7.28190625,2.90083781 6.66499063,2.70260781 6.00344906,2.70260781 C5.09149969,2.70260781 4.26585938,3.07006969 3.66699031,3.66771594 L3.66699031,3.67283563 C3.06836313,4.27072375 2.69943656,5.09782875 2.69943656,6.00441656 C2.69943656,6.9178575 3.06836313,7.74322906 3.66552563,8.34138594 L3.66699031,8.34138594 L3.66699031,8.34453031 C4.26585938,8.94241844 5.09149969,9.31137188 6.00344906,9.31137188 C6.91224063,9.31137188 7.73836469,8.94241844 8.33795938,8.34453031 L8.34063344,8.34138594 C8.93658656,7.74664219 9.31039094,6.91784406 9.31039094,6.00441656 C9.31039094,5.38701719 9.13507188,4.80839844 8.83588594,4.31168125 Z" id="路径" fill="#3AC0DD"></path>
                        <path d="M8.41892031,4.22781781 C8.49986781,4.13856594 8.53425438,4.03615875 8.53425438,3.92887375 C8.53425438,3.70868688 8.35333188,3.52775094 8.12802531,3.52775094 C8.02561813,3.52775094 7.91783594,3.56725719 7.83688844,3.6457725 C7.76103375,3.71916813 7.71888031,3.83181469 7.71888031,3.92887375 C7.71888031,4.16222938 7.90247688,4.34315188 8.12802531,4.34315188 C8.23531031,4.34315188 8.3377175,4.30095813 8.41892031,4.22781781 L8.41892031,4.22781781 Z M8.80661906,3.46533375 L9.58642406,2.68554219 L9.38061531,2.47973344 L8.60056844,3.26002219 C8.6812875,3.31609688 8.75127,3.38509844 8.80661906,3.46533375 Z M6.27631094,5.99588375 L7.65986281,4.61234531 C7.5796275,4.55698281 7.51012875,4.48701375 7.4540675,4.40655 L6.27631094,5.584535 L6.27631094,5.99588375 L6.27631094,5.99588375 Z" id="形状" fill="#3AC0DD"></path>
                        <path d="M6.3162875,6.31824938 C6.40261,6.22339406 6.438945,6.11437563 6.438945,6.0000225 C6.438945,5.76544406 6.24656031,5.5728175 6.00639188,5.5728175 C5.89761531,5.5728175 5.78279188,5.6147425 5.69621406,5.69840438 C5.61575031,5.7764225 5.5708825,5.89663438 5.5708825,6.0000225 C5.5708825,6.24825344 5.76619656,6.44112188 6.00639188,6.44112188 C6.120745,6.44113531 6.22949469,6.39628094 6.3162875,6.31824938 L6.3162875,6.31824938 Z" id="路径" fill="#3AC0DD"></path>
                    </g>
                </g>
            </g>
        </g>
    </g>
</svg>