<?xml version="1.0" encoding="UTF-8"?>
<svg width="16px" height="16px" viewBox="0 0 16 16" version="1.1" xmlns="http://www.w3.org/2000/svg" xmlns:xlink="http://www.w3.org/1999/xlink">
    <!-- Generator: Sketch 61.1 (89650) - https://sketch.com -->
    <title>s-服务网格</title>
    <desc>Created with Sketch.</desc>
    <g id="style02" stroke="none" stroke-width="1" fill="none" fill-rule="evenodd">
        <g id="列表-应用弹窗备份" transform="translate(-22.000000, -780.000000)">
            <g id="编组-18">
                <g id="编组-15" transform="translate(19.000000, 614.000000)">
                    <g id="s-服务网格" transform="translate(3.000000, 166.000000)">
                        <g id="编组-3" fill="#FFFFFF">
                            <rect id="矩形" x="0" y="0" width="16" height="16" rx="4"></rect>
                        </g>
                        <g id="编组" transform="translate(2.500000, 3.500000)">
                            <g>
                                <path d="M6.44885472,4.2989072 L6.44885472,5.9939152 C6.99091232,6.1859952 7.41756512,6.6123344 7.60995872,7.154392 L8.60799072,7.154392 C8.89524832,6.6570224 9.48058272,6.4146096 10.0354979,6.563256 C10.5902563,6.7119024 10.9759843,7.21476 10.9759843,7.7891184 C10.9759843,8.3634768 10.5902563,8.8661776 10.0354979,9.0149808 C9.48058272,9.1636272 8.89524832,8.9212144 8.60799072,8.4238448 L7.60964512,8.4238448 C7.34057632,9.1843248 6.62133472,9.6926704 5.81459872,9.6926704 C5.00786272,9.6926704 4.28877792,9.1843248 4.01955232,8.4238448 L3.02089312,8.4238448 C2.73363552,8.9212144 2.14814432,9.1636272 1.59338592,9.0149808 C1.03862752,8.8661776 0.65289952,8.3634768 0.65289952,7.7891184 C0.65289952,7.21476 1.03862752,6.7119024 1.59338592,6.563256 C2.14814432,6.4146096 2.73363552,6.6570224 3.02089312,7.154392 L4.01908192,7.154392 C4.21147552,6.6121776 4.63812832,6.1856816 5.18034272,5.9936016 L5.17971552,4.2989072" id="Stroke-5" stroke="#52BF96" stroke-width="0.784" stroke-linecap="round" stroke-linejoin="round"></path>
                                <path d="M5.76078496,7.0563136 C5.49908576,7.0563136 5.25714336,7.1958656 5.12621536,7.4225984 C4.99544416,7.6493312 4.99544416,7.928592 5.12621536,8.1553248 C5.25714336,8.3820576 5.49908576,8.5216096 5.76078496,8.5216096 C6.16548576,8.5214528 6.49335456,8.1934272 6.49335456,7.7888832 C6.49335456,7.3843392 6.16548576,7.0563136 5.76078496,7.0563136" id="Fill-8" fill="#52BF96"></path>
                                <path d="M10.5395942,0.4573072 L0.98200704,0.4573072 C0.81156544,0.4573072 0.67342464,0.6125392 0.67342464,0.8038352 L0.67342464,3.91804 C0.67342464,4.1094928 0.81156544,4.264568 0.98200704,4.264568 L10.5395942,4.264568 C10.7100358,4.264568 10.8483334,4.1094928 10.8483334,3.91804 L10.8483334,0.8038352 C10.8483334,0.6125392 10.7100358,0.4573072 10.5395942,0.4573072 Z" id="Stroke-11" stroke="#3366FF" stroke-width="0.784" stroke-linecap="round" stroke-linejoin="round"></path>
                                <circle id="椭圆形" fill="#69D167" cx="9.2" cy="2.2" r="1"></circle>
                            </g>
                        </g>
                    </g>
                </g>
            </g>
        </g>
    </g>
</svg>