<?xml version="1.0" encoding="UTF-8"?>
<svg width="20px" height="20px" viewBox="0 0 20 20" version="1.1" xmlns="http://www.w3.org/2000/svg" xmlns:xlink="http://www.w3.org/1999/xlink">
    <title>编组</title>
    <g id="智能代码评审" stroke="none" stroke-width="1" fill="none" fill-rule="evenodd">
        <g id="工作台-智能助手" transform="translate(-364.000000, -743.000000)">
            <g id="编组" transform="translate(364.000000, 743.000000)">
                <circle id="椭圆形" fill="#57ABFB" cx="10" cy="10" r="10"></circle>
                <path d="M9,9 L9,5.5 C9,5.22385763 9.22385763,5 9.5,5 L10.5,5 C10.7761424,5 11,5.22385763 11,5.5 L11,9 L11,9 L14.5,9 C14.7761424,9 15,9.22385763 15,9.5 L15,10.5 C15,10.7761424 14.7761424,11 14.5,11 L11,11 L11,11 L11,14.5 C11,14.7761424 10.7761424,15 10.5,15 L9.5,15 C9.22385763,15 9,14.7761424 9,14.5 L9,11 L9,11 L5.5,11 C5.22385763,11 5,10.7761424 5,10.5 L5,9.5 C5,9.22385763 5.22385763,9 5.5,9 L9,9 L9,9 Z" id="路径" fill="#FFFFFF" fill-rule="nonzero"></path>
            </g>
        </g>
    </g>
</svg>