<?xml version="1.0" encoding="UTF-8"?>
<svg width="16px" height="16px" viewBox="0 0 16 16" version="1.1" xmlns="http://www.w3.org/2000/svg" xmlns:xlink="http://www.w3.org/1999/xlink">
    <title>编组 39</title>
    <g id="智能代码评审" stroke="none" stroke-width="1" fill="none" fill-rule="evenodd">
        <g id="工作台-智能助手-选择资源做上下文" transform="translate(-979.000000, -669.000000)" fill="#57ABFB" fill-rule="nonzero">
            <g id="编组-39" transform="translate(979.000000, 669.000000)">
                <path d="M6.4,6.4 L6.4,0.5 C6.4,0.223857625 6.62385763,6.55460419e-15 6.9,0 L9.1,0 C9.37614237,-2.85279471e-14 9.6,0.223857625 9.6,0.5 L9.6,6.4 L9.6,6.4 L15.5,6.4 C15.7761424,6.4 16,6.62385763 16,6.9 L16,9.1 C16,9.37614237 15.7761424,9.6 15.5,9.6 L9.6,9.6 L9.6,9.6 L9.6,15.5 C9.6,15.7761424 9.37614237,16 9.1,16 L6.9,16 C6.62385763,16 6.4,15.7761424 6.4,15.5 L6.4,9.6 L6.4,9.6 L0.5,9.6 C0.223857625,9.6 1.12589478e-15,9.37614237 0,9.1 L0,6.9 C-4.13322781e-16,6.62385763 0.223857625,6.4 0.5,6.4 L6.4,6.4 L6.4,6.4 Z" id="路径"></path>
            </g>
        </g>
    </g>
</svg>