<?xml version="1.0" encoding="UTF-8"?>
<svg width="20px" height="20px" viewBox="0 0 20 20" version="1.1" xmlns="http://www.w3.org/2000/svg" xmlns:xlink="http://www.w3.org/1999/xlink">
    <title>生成流水线</title>
    <g id="智能代码评审" stroke="none" stroke-width="1" fill="none" fill-rule="evenodd">
        <g id="工作台-智能助手-多选" transform="translate(-1089.000000, -326.000000)" fill-rule="nonzero">
            <g id="编组-36" transform="translate(1089.000000, 326.000000)">
                <g id="进度计划" transform="translate(1.000000, 1.000000)">
                    <rect id="矩形" fill="#000000" opacity="0" x="0" y="0" width="19" height="19"></rect>
                    <path d="M2.14280664,1.9 L6.91401465,1.9 C8.22609082,1.9 9.29960937,2.97353711 9.29960937,4.28561328 L9.29960937,15.0208545 C9.29960937,15.6768926 8.76284082,16.2136426 8.10680273,16.2136426 L2.14280664,16.2136426 C1.48676855,16.2136426 0.95,15.676874 0.95,15.0208545 L0.95,3.09278809 C0.95,2.43675 1.48676855,1.9 2.14280664,1.9 L2.14280664,1.9 Z" id="路径" fill="#FAAD14"></path>
                    <path d="M0.95,3.8 L16.4564121,3.8 C17.1124502,3.8 17.6492187,4.33676855 17.6492187,4.99280664 L17.6492187,15.131626 C17.6492187,15.7876641 17.1124502,16.3244141 16.4564121,16.3244141 L2.14280664,16.3244141 C1.48676855,16.3244141 0.95,15.7876641 0.95,15.1316445 L0.95,3.8 Z" id="路径" fill="#FFC53D"></path>
                    <path d="M11.2097503,10.1503942 L7.58052562,10.1503942 C6.87445466,10.1503942 6.29921156,9.57515112 6.29921156,8.86908016 C6.29921156,8.16201051 6.87445466,7.5877661 7.58052562,7.5877661 L11.589251,7.5877661 C11.6971091,7.78850197 11.9088305,7.92632063 12.1525099,7.92632063 C12.5040473,7.92632063 12.7906702,7.63969777 12.7906702,7.28816032 C12.7906702,6.93662286 12.5040473,6.65 12.1525099,6.65 C11.9166144,6.65 11.7,6.78027274 11.589251,6.98855453 L7.58052562,6.98855453 C6.54388962,6.98755585 5.7,7.83144547 5.7,8.86908016 C5.7,9.90571616 6.54388962,10.7496058 7.58052562,10.7496058 L11.2097503,10.7496058 C11.9158213,10.7496058 12.4910644,11.3248489 12.4910644,12.0309198 C12.4910644,12.7379895 11.9158213,13.3122339 11.2097503,13.3122339 L7.20102497,13.3122339 C7.09316689,13.111498 6.88144547,12.9736794 6.6377661,12.9736794 C6.28622865,12.9736794 5.99960578,13.2603022 5.99960578,13.6118397 C5.99960578,13.9633771 6.28622865,14.25 6.6377661,14.25 C6.88144547,14.25 7.09316689,14.1121813 7.20102497,13.9114455 L11.2097503,13.9114455 C12.2463863,13.9114455 13.090276,13.0675558 13.090276,12.0309198 C13.090276,10.9942838 12.2463863,10.1503942 11.2097503,10.1503942 Z" id="路径" stroke="#F5F1C7" stroke-width="0.5" fill="#F5F1C7"></path>
                </g>
            </g>
        </g>
    </g>
</svg>