<?xml version="1.0" encoding="UTF-8"?>
<svg width="42px" height="42px" viewBox="0 0 42 42" version="1.1" xmlns="http://www.w3.org/2000/svg" xmlns:xlink="http://www.w3.org/1999/xlink">
    <title>shengchengmoxing</title>
    <g id="智能代码评审" stroke="none" stroke-width="1" fill="none" fill-rule="evenodd">
        <g id="工作台-设计师助手" transform="translate(-942.000000, -344.000000)" fill-rule="nonzero">
            <g id="编组-38" transform="translate(871.000000, 330.000000)">
                <g id="shengchengmoxing" transform="translate(71.000000, 14.000000)">
                    <polygon id="路径" fill-opacity="0.01" fill="#FFFFFF" points="0 0 42 0 42 42 0 42"></polygon>
                    <path d="M7.46666667,9.33333333 L31.7333333,9.33333333 L31.7333333,32.6666667 L7.46666667,32.6666667 Z M22.5011548,0.398951181 L37.6988452,9.16555296 C38.6277394,9.70147452 39.2,10.6918882 39.2,11.7637313 L39.2,29.3029353 C39.2,30.3747785 38.6277394,31.3651921 37.6988452,31.9011137 L22.5011548,40.6647153 C21.572237,41.2006505 20.427763,41.2006505 19.4988452,40.6647153 L4.30115475,31.9041139 C3.37226055,31.3681924 2.8,30.3777787 2.8,29.3059355 L2.8,11.7637313 C2.8,10.6918882 3.37226055,9.70147452 4.30115475,9.16555296 L19.4988452,0.401951392 C20.427763,-0.133983797 21.572237,-0.133983797 22.5011548,0.401951392 L22.5011548,0.398951181 Z" id="形状" fill="#FFFFFF"></path>
                    <path d="M18.3639723,27.6588225 C17.8276022,27.6587339 17.3319379,27.9446325 17.0637273,28.4088024 C16.7955166,28.8729722 16.7955166,29.4448787 17.0637273,29.9090486 C17.3319379,30.3732184 17.8276022,30.6591171 18.3639723,30.6590285 C19.1929402,30.6588915 19.8648788,29.9873126 19.8648788,29.1589255 C19.8648788,28.3305383 19.1929402,27.6589595 18.3639723,27.6588225 L18.3639723,27.6588225 Z" id="路径" fill="#ED4928"></path>
                    <path d="M13.8154734,24.7876254 C12.9864086,24.7876254 12.3143187,25.4592443 12.3143187,26.2877284 C12.3143187,27.1162124 12.9864086,27.7878314 13.8154734,27.7878314 C14.6445383,27.7878314 15.3166282,27.1162124 15.3166282,26.2877284 C15.3166282,25.4592443 14.6445383,24.7876254 13.8154734,24.7876254 Z" id="路径" fill="#ED4928"></path>
                    <path d="M21,10.0326125 C16.2958249,10.0320126 12.1637085,13.154047 10.8822171,17.6771373 L10.4228637,16.7710751 L10.2787529,16.5400592 C9.8073251,15.9246128 8.94434356,15.7693717 8.28773539,16.1818966 C7.63112722,16.5944215 7.39710161,17.4388754 7.74780602,18.1301683 L9.60023093,21.7634178 L9.76235567,22.0334363 C10.3675764,22.8777479 11.4994837,23.153194 12.4254042,22.6814808 L15.9981524,20.863356 L16.2293303,20.7193461 C16.8452082,20.2482486 17.0005581,19.3858717 16.587744,18.7297236 C16.1749298,18.0735754 15.3298838,17.8397138 14.6381062,18.1901725 L13.7344111,18.6462038 C14.6127368,15.2644724 17.7104667,12.9360013 21.2054155,13.0304728 C24.7003644,13.1249442 27.6675989,15.6173565 28.3616954,19.0415918 C29.0557918,22.4658272 27.2930586,25.9156664 24.1103926,27.3618021 C23.9302541,27.4428076 23.7020785,27.5268134 23.4288683,27.6108192 C22.580278,27.8740127 22.0849101,28.7534645 22.3,29.6149568 C22.395502,29.9650978 22.6263092,30.262973 22.9416278,30.4430287 C23.2569463,30.6232878 23.6309362,30.6705655 23.9812933,30.5750227 C24.4406466,30.449014 24.812933,30.3260056 25.0981524,30.2059973 C29.6979344,28.2561159 32.288375,23.339882 31.2943333,18.4466561 C30.3002916,13.5534302 25.9965343,10.0357666 21,10.0326125 Z" id="路径" fill="#2572F3"></path>
                </g>
            </g>
        </g>
    </g>
</svg>