<?xml version="1.0" encoding="UTF-8"?>
<svg width="16px" height="16px" viewBox="0 0 16 16" version="1.1" xmlns="http://www.w3.org/2000/svg" xmlns:xlink="http://www.w3.org/1999/xlink">
    <title>关闭小</title>
    <g id="智能代码评审" stroke="none" stroke-width="1" fill="none" fill-rule="evenodd">
        <g id="设计师助手-设计样式和趋势分析" transform="translate(-1172.000000, -783.000000)">
            <g id="编组-39" transform="translate(164.000000, 63.000000)">
                <g id="关闭小" transform="translate(1008.000000, 720.000000)">
                    <rect id="矩形" fill="#000000" fill-rule="nonzero" opacity="0" x="0" y="0" width="16" height="16"></rect>
                    <circle id="椭圆形" fill="#FFFFFF" cx="8" cy="8" r="6"></circle>
                    <path d="M8,16 C3.582,16 0,12.418 0,8 C0,3.582 3.582,0 8,0 C12.418,0 16,3.582 16,8 C16,12.418 12.418,16 8,16 Z M8,7.05734375 L4.69734375,3.7533125 C4.57225023,3.62910104 4.40293645,3.55967166 4.22665122,3.56029874 C4.05036599,3.56092582 3.88155043,3.63155798 3.75734375,3.75665625 C3.63175018,3.88059719 3.56077461,4.04951044 3.56014274,4.22596073 C3.55951928,4.40241103 3.62929136,4.57182494 3.754,4.69665625 L7.05732813,8 L3.75332813,11.3026563 C3.62911666,11.4277498 3.55968728,11.5970636 3.56031436,11.7733488 C3.56094144,11.949634 3.63157361,12.1184496 3.75667188,12.2426562 C3.88061281,12.3682498 4.04952606,12.4392254 4.22597636,12.4398573 C4.40242665,12.4404807 4.57184057,12.3707086 4.69667188,12.246 L8,8.94267188 L11.3026563,12.246 C11.4277477,12.3702135 11.5970603,12.4396457 11.7733455,12.4390216 C11.9496308,12.4383974 12.1184475,12.3677681 12.2426562,12.2426719 C12.3682498,12.1187309 12.4392254,11.9498177 12.4398573,11.7733674 C12.4404807,11.5969171 12.3707086,11.4275032 12.246,11.3026719 L8.94267188,8 L12.246,4.69734375 C12.3702135,4.5722523 12.4396457,4.40293968 12.4390216,4.22665445 C12.4383974,4.05036923 12.3677681,3.88155251 12.2426719,3.75734375 C12.1187309,3.63175018 11.9498177,3.56077461 11.7733674,3.56014274 C11.5969171,3.55951928 11.4275032,3.62929136 11.3026719,3.754 L8,7.05732812 L8,7.05734375 Z" id="形状" fill="#D6D6D6" fill-rule="nonzero"></path>
                </g>
            </g>
        </g>
    </g>
</svg>