<?xml version="1.0" encoding="UTF-8"?>
<svg width="16px" height="16px" viewBox="0 0 16 16" version="1.1" xmlns="http://www.w3.org/2000/svg" xmlns:xlink="http://www.w3.org/1999/xlink">
    <title>关闭</title>
    <g id="智能代码评审" stroke="none" stroke-width="1" fill="none" fill-rule="evenodd">
        <g id="工作台-智能助手-多选备份" transform="translate(-1112.000000, -789.000000)" fill-rule="nonzero">
            <g id="关闭" transform="translate(1112.000000, 789.000000)">
                <rect id="矩形" fill="#000000" opacity="0" x="0" y="0" width="16" height="16"></rect>
                <path d="M9.13455315,8.00762534 L14.7669363,13.6400085 C15.0645177,13.9534378 15.058119,14.4469166 14.7525109,14.7525246 C14.4469029,15.0581327 13.9534241,15.0645313 13.6399949,14.76695 L8.00761167,9.13456682 L2.37522849,14.76695 C2.06178042,15.0644068 1.56840232,15.057949 1.2628471,14.7523901 C0.957291876,14.4468312 0.950840056,13.953453 1.24830068,13.6400085 L6.88068386,8.00762534 L1.24830068,2.37524216 C1.03819599,2.17576101 0.952864845,1.8779898 1.02542775,1.59750569 C1.09799066,1.31702159 1.31702159,1.09799066 1.59750569,1.02542775 C1.8779898,0.952864845 2.17576101,1.03819599 2.37524216,1.24830068 L8.00762534,6.88068386 L13.6399949,1.24830068 C13.9534241,0.95071935 14.4469029,0.957118023 14.7525109,1.26272607 C15.058119,1.56833412 15.0645177,2.06181287 14.7669363,2.37524216 L9.13455315,8.00762534 L9.13455315,8.00762534 Z" id="路径" fill="#999999"></path>
            </g>
        </g>
    </g>
</svg>