<?xml version="1.0" encoding="UTF-8"?>
<svg width="30px" height="30px" viewBox="0 0 30 30" version="1.1" xmlns="http://www.w3.org/2000/svg" xmlns:xlink="http://www.w3.org/1999/xlink">
    <title>代码助手</title>
    <g id="智能代码评审" stroke="none" stroke-width="1" fill="none" fill-rule="evenodd">
        <g id="工作台-智能助手" transform="translate(-780.000000, -172.000000)">
            <g id="编组-38" transform="translate(764.000000, 159.000000)">
                <rect id="矩形" stroke="#E1E2E4" x="0.5" y="0.5" width="187" height="53" rx="8"></rect>
                <g id="复制" transform="translate(17.000000, 14.000000)" fill-rule="nonzero">
                    <path d="M4.39242187,5.92976952 L17.6761192,5.92976952 C20.6044005,5.92976952 22.0685411,7.39391014 22.0685411,10.3221914 L22.0685411,23.6058887 C22.0685411,26.53417 20.6044005,27.9983106 17.6761192,27.9983106 L4.39242187,27.9983106 C1.46414062,27.9983106 0,26.53417 0,23.6058887 L0,10.3221914 C0,7.39391014 1.46414062,5.92976952 4.39242187,5.92976952 Z" id="路径" fill="#4BE2AC"></path>
                    <path d="M10.3238808,0 L23.6075781,0 C26.5358594,0 28,1.46414062 28,4.39242187 L28,17.6761192 C28,20.6044005 26.5358594,22.0685411 23.6075781,22.0685411 L10.3238808,22.0685411 C7.39559953,22.0685411 5.93145891,20.6044005 5.93145891,17.6761192 L5.93145891,4.39242187 C5.93145891,1.46414062 7.39559953,0 10.3238808,0 Z" id="路径" fill="#4BE2AC"></path>
                    <path d="M17.5798238,5.92976952 L5.93145891,5.92976952 L5.93145891,17.5865814 C5.93518705,20.0629921 7.94376269,22.0685411 10.4201762,22.0685411 L22.0685411,22.0685411 L22.0685411,10.4117292 C22.064813,7.93531853 20.0562373,5.92976952 17.5798238,5.92976952 Z" id="路径" fill="#06CC76"></path>
                    <g id="字体代码" transform="translate(6.668970, 10.205888)" fill="#FFFFFF" stroke="#FFFFFF" stroke-width="0.5">
                        <path d="M3.68985335,0.167821455 L0.126290968,4.17693542 C-0.0420969892,4.3663769 -0.0420969892,4.65184795 0.126290968,4.84128942 L3.68985335,8.85040339 C3.87335371,9.05671085 4.18933882,9.07533101 4.39579936,8.89200291 L4.76976134,8.55972193 C4.97626092,8.37638468 4.99491251,8.0603521 4.81149349,7.85392518 C4.81146927,7.85389792 4.81144505,7.85387066 4.81133908,7.85391608 L1.83803035,4.50911242 L1.83803035,4.50911242 L4.81133908,1.16430876 C4.994885,0.957994642 4.97630255,0.64195799 4.76991576,0.458493814 C4.7698885,0.458469589 4.76986125,0.458445367 4.76976134,0.458502911 L4.39579936,0.126221934 C4.18933882,-0.0571061653 3.87335371,-0.0384860032 3.68985335,0.167821455 Z M10.0783349,0.126304687 L9.70472581,0.458420158 C9.49834077,0.641885525 9.47975878,0.957921481 9.66322163,1.16430876 L12.6365304,4.50911242 L12.6365304,4.50911242 L9.66322163,7.85391608 C9.47975878,8.06030336 9.49834077,8.37633932 9.70472581,8.55980469 L10.0783349,8.89192016 C10.2847246,9.07537562 10.6007565,9.05679721 10.7842295,8.85042307 L14.3482148,4.84131156 C14.516629,4.65186317 14.516629,4.36636168 14.3482148,4.17691329 L10.7842295,0.167801777 C10.6007565,-0.0385723624 10.2847246,-0.0571507772 10.0783349,0.126304687 Z" id="形状"></path>
                    </g>
                </g>
            </g>
        </g>
    </g>
</svg>