<?xml version="1.0" encoding="UTF-8"?>
<svg width="30px" height="30px" viewBox="0 0 30 30" version="1.1" xmlns="http://www.w3.org/2000/svg" xmlns:xlink="http://www.w3.org/1999/xlink">
    <title>代码解析</title>
    <g id="智能代码评审" stroke="none" stroke-width="1" fill="none" fill-rule="evenodd">
        <g id="工作台-智能助手" transform="translate(-980.000000, -172.000000)">
            <g id="编组-38" transform="translate(964.000000, 159.000000)">
                <rect id="矩形" stroke="#E1E2E4" x="0.5" y="0.5" width="187" height="53" rx="8"></rect>
                <g id="风险查询" transform="translate(19.000000, 14.000000)" fill-rule="nonzero">
                    <path d="M24.1989411,16.2444955 C24.1989411,23.4408189 15.627888,26.9246999 12.8700256,27.8591127 C12.3255738,28.0469624 11.7338788,28.0469624 11.189427,27.8591127 C8.45845422,26.9062133 0,23.3786367 0,16.2512179 L0,6.984397 C-0.000992550987,5.97562156 0.583122468,5.05782018 1.49741465,4.63155891 L10.9356566,0.241835261 C11.628224,-0.0806117537 12.4278674,-0.0806117537 13.1204348,0.241835261 L22.6998471,4.64836489 C23.6194683,5.07085963 24.2098146,5.98917615 24.2123859,7.00120299 L24.1989411,16.2444955 Z" id="路径" fill="#FFD05D"></path>
                    <path d="M22.8460592,24.7247962 L21.5553594,23.33158 C23.2798624,20.906193 22.8901444,17.5693957 20.6531382,15.6066895 C18.4161321,13.6439832 15.056991,13.6916034 12.8765205,15.7169332 C10.6960501,17.742263 10.4010766,21.0887667 12.1936388,23.4642946 C13.9862011,25.8398225 17.2852179,26.474318 19.8310652,24.9331905 L21.121765,26.3230455 C21.4024188,26.6503249 21.8396146,26.7978654 22.2611885,26.7075669 C22.6827623,26.6172684 23.0211697,26.3035984 23.1431486,25.8900775 C23.2651275,25.4765567 23.1511346,25.0294392 22.8460592,24.7247962 L22.8460592,24.7247962 Z M13.3557182,19.9569379 C13.3550388,18.5558437 14.1985145,17.2923323 15.4927616,16.7556856 C16.7870088,16.219039 18.2770895,16.5149646 19.2680532,17.5054475 C20.2590169,18.4959304 20.5556657,19.9858672 20.0196472,21.2803747 C19.4836287,22.5748822 18.2205268,23.4189711 16.8194324,23.4189711 C14.9078994,23.41712 13.3584975,21.8684698 13.3557182,19.9569379 L13.3557182,19.9569379 Z" id="形状" fill="#FFD05D"></path>
                    <path d="M11.7048854,17.0193268 C10.6437794,18.8334005 10.6437794,21.0787947 11.7048854,22.8928684 C12.7659914,24.7069421 14.7231572,25.8075314 16.8244742,25.7718092 C17.0768249,25.7712071 17.3288754,25.7543664 17.579063,25.7213912 C19.3235244,24.7012679 21.1268068,23.33158 22.4091035,21.5635902 C22.9209083,19.8083074 22.5750413,17.9144532 21.4758465,16.4533808 C20.3766517,14.9923084 18.6528434,14.1351077 16.8244742,14.140386 C14.7231572,14.1046638 12.7659914,15.2052531 11.7048854,17.0193268 Z M16.8244742,23.4189711 C15.4233799,23.4189711 14.160278,22.5748822 13.6242595,21.2803747 C13.088241,19.9858672 13.3848898,18.4959304 14.3758535,17.5054475 C15.3668172,16.5149646 16.8568979,16.219039 18.151145,16.7556856 C19.4453922,17.2923323 20.2888679,18.5558437 20.2881884,19.9569379 C20.2854092,21.8684698 18.7360073,23.41712 16.8244742,23.4189711 L16.8244742,23.4189711 Z" id="形状" fill="#FCA236"></path>
                    <path d="M4.34098755,16.4512091 C3.59845235,16.4512091 2.99650864,15.8492654 2.99650864,15.1067302 L2.99650864,9.51369795 C2.99650864,8.77116275 3.59845235,8.16921904 4.34098755,8.16921904 C5.08352275,8.16921904 5.68546646,8.77116275 5.68546646,9.51369795 L5.68546646,15.1067302 C5.68546646,15.8492654 5.08352275,16.4512091 4.34098755,16.4512091 L4.34098755,16.4512091 Z" id="路径" fill="#FFFFFF"></path>
                </g>
            </g>
        </g>
    </g>
</svg>