<?xml version="1.0" encoding="UTF-8"?>
<svg width="20px" height="20px" viewBox="0 0 20 20" version="1.1" xmlns="http://www.w3.org/2000/svg" xmlns:xlink="http://www.w3.org/1999/xlink">
    <title>项目动态</title>
    <g id="智能代码评审" stroke="none" stroke-width="1" fill="none" fill-rule="evenodd">
        <g id="工作台-智能助手-多选" transform="translate(-1089.000000, -255.000000)" fill-rule="nonzero">
            <g id="项目动态" transform="translate(1089.000000, 255.000000)">
                <rect id="矩形" fill="#000000" opacity="0" x="0" y="0" width="20" height="20"></rect>
                <path d="M5.60546875,18.7890625 L15.9640039,18.7890625 C16.8429102,18.7890625 17.5334766,18.0984961 17.5334766,17.2195898 L17.5334766,11.2555859 L3.09433594,11.2555859 L3.09433594,16.2779102 C3.09433594,17.659043 4.22433594,18.7890625 5.60546875,18.7890625 Z" id="路径" fill="#BAE7FF"></path>
                <path d="M12.6367188,18.7890625 L4.66378906,18.7890625 C3.78488281,18.7890625 3.09431641,18.0984961 3.09431641,17.2195898 L3.09431641,2.78041016 C3.09431641,1.90150391 3.78488281,1.2109375 4.66378906,1.2109375 L15.9012305,1.2109375 C16.8429102,1.2109375 17.5334766,1.90150391 17.5334766,2.78041016 L17.5334766,13.9550781 L12.6367188,18.7890625 Z" id="路径" fill="#69C0FF"></path>
                <path d="M12.6994922,18.7890625 L12.6994922,15.1478711 C12.6994922,14.5200977 13.2017383,13.9550781 13.8923047,13.9550781 L17.5334766,13.9550781 L12.6994922,18.7890625 Z" id="路径" fill="#1890FF"></path>
                <path d="M6.23326172,12.5111523 L14.3945312,12.5111523 C14.7712109,12.5111523 15.0223242,12.2600391 15.0223242,11.8833789 C15.0223242,11.5067187 14.7712109,11.2555859 14.3945312,11.2555859 L6.23326172,11.2555859 C5.85658203,11.2555859 5.60546875,11.5066992 5.60546875,11.8833789 C5.60546875,12.2600586 5.85658203,12.5111523 6.23326172,12.5111523 Z M11.2555859,9.37220703 L14.3945312,9.37220703 C14.7712109,9.37220703 15.0223242,9.12109375 15.0223242,8.74441406 C15.0223242,8.36773438 14.7712109,8.11662109 14.3945312,8.11662109 L11.2555859,8.11662109 C10.8789062,8.11662109 10.627793,8.36775391 10.627793,8.74441406 C10.627793,9.12107422 10.8789062,9.37220703 11.2555859,9.37220703 L11.2555859,9.37220703 Z M6.23326172,9.37220703 L8.74441406,9.37220703 C9.12109375,9.37220703 9.37220703,9.12109375 9.37220703,8.74441406 L9.37220703,5.60546875 C9.37220703,5.22878906 9.12109375,4.97767578 8.74441406,4.97767578 L6.23326172,4.97767578 C5.85658203,4.97767578 5.60546875,5.22878906 5.60546875,5.60546875 L5.60546875,8.74441406 C5.60546875,9.12109375 5.85658203,9.37220703 6.23326172,9.37220703 L6.23326172,9.37220703 Z M11.2555859,6.23326172 L14.3945312,6.23326172 C14.7712109,6.23326172 15.0223242,5.98214844 15.0223242,5.60546875 C15.0223242,5.22878906 14.7712109,4.97767578 14.3945312,4.97767578 L11.2555859,4.97767578 C10.8789062,4.97767578 10.627793,5.22878906 10.627793,5.60546875 C10.627793,5.98214844 10.8789062,6.23326172 11.2555859,6.23326172 L11.2555859,6.23326172 Z" id="形状" fill="#BAE7FF"></path>
            </g>
        </g>
    </g>
</svg>