<?xml version="1.0" encoding="UTF-8"?>
<svg width="32px" height="32px" viewBox="0 0 32 32" version="1.1" xmlns="http://www.w3.org/2000/svg" xmlns:xlink="http://www.w3.org/1999/xlink">
    <title>开发 (2)</title>
    <g id="智能代码评审" stroke="none" stroke-width="1" fill="none" fill-rule="evenodd">
        <g id="智能助手-开发助手" transform="translate(-181.000000, -249.000000)" fill-rule="nonzero">
            <g id="编组-43" transform="translate(164.000000, 233.000000)">
                <g id="开发-(2)" transform="translate(17.000000, 16.000000)">
                    <circle id="形状" fill="#6B57FE" cx="16" cy="16" r="16"></circle>
                    <g id="设计" transform="translate(8.000000, 8.000000)">
                        <rect id="矩形" fill="#000000" opacity="0" x="0" y="0" width="16" height="16"></rect>
                        <path d="M15.032,4.712 C15.488,4.256 15.488,3.528 15.032,3.072 L12.816,0.856 C12.368,0.4 11.632,0.4 11.176,0.856 L8.92,3.112 L12.776,6.976 L15.032,4.712 Z" id="路径" fill="#F5C659"></path>
                        <path d="M2.144,9.888 C1.912,10.12 1.736,10.416 1.632,10.728 L0.68,14.216 C0.552,14.632 0.784,15.072 1.2,15.208 C1.352,15.256 1.52,15.256 1.672,15.208 L5.16,14.256 C5.48,14.152 5.768,13.984 6.008,13.744 L6.88,12.872 L3.024,9.008 L2.144,9.888 Z M4.888,1.112 C4.4,0.616 3.592,0.616 3.096,1.112 L3.088,1.12 L1,3.208 C0.504,3.704 0.504,4.504 1,5 L1.992,6 L3.832,4.152 C4.08,3.904 4.48,3.904 4.728,4.152 C4.976,4.4 4.976,4.8 4.728,5.048 L2.888,6.88 L3.784,7.776 L4.88,6.68 C5.12,6.432 5.52,6.424 5.768,6.672 L5.776,6.68 C6.024,6.928 6.024,7.328 5.776,7.576 L4.688,8.672 L5.584,9.568 L7.416,7.728 C7.664,7.48 8.064,7.48 8.312,7.728 C8.56,7.976 8.56,8.376 8.312,8.624 L6.456,10.448 L7.36,11.36 L7.368,11.352 L8.448,10.264 C8.696,10.016 9.096,10.016 9.344,10.264 C9.592,10.512 9.592,10.912 9.344,11.16 L8.256,12.24 L8.248,12.248 L9.144,13.144 L10.976,11.312 C11.224,11.064 11.624,11.064 11.872,11.312 C12.12,11.56 12.12,11.96 11.872,12.208 L10.032,14.032 L11.104,15.104 C11.6,15.6 12.4,15.6 12.896,15.112 L12.904,15.104 L15,13.008 C15.496,12.512 15.496,11.712 15,11.216 L4.888,1.112 Z" id="形状" fill="#C9CEFF"></path>
                    </g>
                </g>
            </g>
        </g>
    </g>
</svg>