<?xml version="1.0" encoding="UTF-8"?>
<svg width="32px" height="32px" viewBox="0 0 32 32" version="1.1" xmlns="http://www.w3.org/2000/svg" xmlns:xlink="http://www.w3.org/1999/xlink">
    <title>开发 (2)</title>
    <g id="智能代码评审" stroke="none" stroke-width="1" fill="none" fill-rule="evenodd">
        <g id="智能助手-开发助手" transform="translate(-181.000000, -312.000000)" fill-rule="nonzero">
            <g id="编组-43" transform="translate(164.000000, 296.000000)">
                <g id="开发-(2)" transform="translate(17.000000, 16.000000)">
                    <circle id="形状" fill="#508EFF" cx="16" cy="16" r="16"></circle>
                    <g id="编组-36" transform="translate(5.000000, 10.000000)">
                        <path d="M16.4548969,0.294996944 C15.9425581,0.724869131 15.8500199,1.48192756 16.2435285,2.02420907 L16.2927917,2.08784543 L19.8300548,6.36378482 L16.2932127,10.6401485 C15.8664782,11.1560968 15.9110836,11.9173472 16.3951074,12.3791182 L16.4548969,12.4325727 C16.966966,12.86254 17.7224927,12.8175967 18.1807917,12.329906 L18.2338443,12.2696636 L22.4443706,7.17875452 C22.8149699,6.73063121 22.8357919,6.08602829 22.4948969,5.6145727 L22.4443706,5.54881513 L18.2338443,0.457906035 C17.7872307,-0.0820084473 16.9907995,-0.154942522 16.4548969,0.294996944 L16.4548969,0.294996944 Z" id="路径" fill="#C7E0FF"></path>
                        <path d="M4.55619788,0.397678989 L4.50314525,0.457921413 L0.292618932,5.5488305 L0.242092616,5.61458808 C-0.0797642513,6.05986888 -0.0807838264,6.66323587 0.239566301,7.10961838 L0.292618932,7.1787699 L4.50314525,12.269679 L4.55619788,12.3299214 C4.99345244,12.7953664 5.70598483,12.8606163 6.21935577,12.4822244 L6.28251367,12.4325881 L6.34230314,12.3791335 C6.80424859,11.9385664 6.86900786,11.2206361 6.49346104,10.703376 L6.44419788,10.6397396 L2.90693472,6.3638002 L6.44377683,2.08743656 L6.49346104,2.02422444 C6.88706864,1.48204982 6.79471654,0.725006126 6.28251367,0.295012322 C5.77002355,-0.134955008 5.01449688,-0.090011708 4.55619788,0.397678989 Z" id="路径" fill="#C7E0FF"></path>
                        <path d="M11.5636623,0.960560173 C11.7309954,0.294710234 12.3925062,-0.117239941 13.0584216,0.0297115733 C13.724337,0.176663087 14.1543957,0.829496397 14.0301886,1.5048632 L14.0141886,1.57825714 L11.4878728,11.7600753 C11.3205397,12.4259253 10.6590289,12.8378754 9.99311353,12.6909239 C9.32719812,12.5439724 8.89713936,11.8911391 9.0213465,11.2157723 L9.0373465,11.1423784 L11.5636623,0.960560173 Z" id="路径" fill="#34E3FA"></path>
                    </g>
                </g>
            </g>
        </g>
    </g>
</svg>