<?xml version="1.0" encoding="UTF-8"?>
<svg width="30px" height="30px" viewBox="0 0 30 30" version="1.1" xmlns="http://www.w3.org/2000/svg" xmlns:xlink="http://www.w3.org/1999/xlink">
    <title>画流程图</title>
    <g id="智能代码评审" stroke="none" stroke-width="1" fill="none" fill-rule="evenodd">
        <g id="工作台-智能助手" transform="translate(-381.000000, -237.000000)">
            <g id="编组-38" transform="translate(365.000000, 225.000000)">
                <rect id="矩形" stroke="#E1E2E4" x="0.5" y="0.5" width="187" height="53" rx="8"></rect>
                <g id="存储" transform="translate(16.000000, 13.000000)" fill-rule="nonzero">
                    <path d="M7.46024958,0 L25.5538696,0 C28.5273693,0 30.0141192,1.45744435 30.0141192,4.37233305 L30.0141192,23.6276669 C30.0141192,26.5425556 28.5273693,28 25.5538696,28 L7.46024958,28 C4.48674986,28 3,26.5425556 3,23.6276669 L3,4.37233305 C3,1.45744435 4.48674986,0 7.46024958,0 Z" id="路径" fill="#FD767F"></path>
                    <g id="liuchengsheji" transform="translate(0.000000, 6.563009)">
                        <path d="M12.7834163,8.45 L8.21658366,8.45 C8.09390506,8.43818697 8,8.32979345 8,8.2 C8,8.07020655 8.09390506,7.96181303 8.21658366,7.95 L12.7834163,7.95 C12.9060949,7.96181303 13,8.07020655 13,8.2 C13,8.32979345 12.9060949,8.43818697 12.7834163,8.45 L12.7834163,8.45 Z M8.9651544,15 C8.43242228,14.9994622 8.00074269,14.6868897 8,14.3011467 L8,8.11664146 C8,8.05222216 8.07212164,8 8.1610882,8 C8.25005475,8 8.3221764,8.05222216 8.3221764,8.11664146 L8.3221764,14.3011467 C8.3221764,14.4246236 8.38991853,14.5430433 8.51050029,14.6303547 C8.63108206,14.7176661 8.79462603,14.7667171 8.9651544,14.7667171 L15.8389118,14.7667171 C15.9278784,14.7667171 16,14.8189392 16,14.8833585 C16,14.9477778 15.9278784,15 15.8389118,15 L8.9651544,15 Z" id="形状" stroke="#F33B3D" stroke-width="0.6" fill="#F85F69"></path>
                        <path d="M13.66486,6.5 L25.33514,6.5 C25.77838,6.5 26,6.76889234 26,7.30667701 L26,8.69332299 C26,9.23110766 25.77838,9.5 25.33514,9.5 L13.66486,9.5 C13.22162,9.5 13,9.23110766 13,8.69332299 L13,7.30667701 C13,6.76889234 13.22162,6.5 13.66486,6.5 Z" id="路径" fill="#FFFFFF"></path>
                        <path d="M25.33514,13 C25.77838,13 26,13.2688923 26,13.806677 L26,15.193323 C26,15.7311077 25.77838,16 25.33514,16 L13.66486,16 C13.22162,16 13,15.7311077 13,15.193323 L13,13.806677 C13,13.2688923 13.22162,13 13.66486,13 L25.33514,13 Z" id="路径" fill="#FFFFFF"></path>
                        <path d="M8,7.88335854 L8,1.6988533 C8.00074269,1.31311025 8.43242228,1.00053777 8.9651544,1 L15.8389118,1 C15.9278784,1 16,1.05222216 16,1.11664146 C16,1.18106076 15.9278784,1.23328292 15.8389118,1.23328292 L8.9651544,1.23328292 C8.61004745,1.23328292 8.3221764,1.44172588 8.3221764,1.6988533 L8.3221764,7.88335854 C8.3221764,7.94777784 8.25005475,8 8.1610882,8 C8.07212164,8 8,7.94777784 8,7.88335854 Z" id="路径" stroke="#F33B3D" stroke-width="0.6" fill="#F85F69"></path>
                        <path d="M13.66486,0 L25.33514,0 C25.77838,0 26,0.268892335 26,0.806677006 L26,2.19332299 C26,2.73110766 25.77838,3 25.33514,3 L13.66486,3 C13.22162,3 13,2.73110766 13,2.19332299 L13,0.806677006 C13,0.268892335 13.22162,0 13.66486,0 Z" id="路径" fill="#FFFFFF"></path>
                        <path d="M3.83974055,10.7994065 L0.160951224,8.30151776 C0.059667206,8.23008614 0,8.11760988 0,7.99811505 C0,7.87862023 0.059667206,7.76614397 0.160951224,7.69471234 L3.83974055,5.20059351 C4.23449521,4.9331355 4.76550479,4.9331355 5.16025945,5.20059351 L8.83904878,7.69471234 C8.94033279,7.76614397 9,7.87862023 9,7.99811505 C9,8.11760988 8.94033279,8.23008614 8.83904878,8.30151776 L5.1602334,10.7994065 C4.76547874,11.0668645 4.23446916,11.0668645 3.8397145,10.7994065 L3.83974055,10.7994065 Z" id="路径" fill="#FD767F"></path>
                        <path d="M2.99001873,10.2224475 C3,10.2292248 3.0116705,5.76574758 3,5.77365986 C2.79357659,5.91360931 3.07349011,5.72258719 3.83974055,5.20059351 C4.23449521,4.9331355 4.76550479,4.9331355 5.16025945,5.20059351 L8.83904878,7.69471234 C8.94033279,7.76614397 9,7.87862023 9,7.99811505 C9,8.11760988 8.94033279,8.23008614 8.83904878,8.30151776 L5.1602334,10.7994065 C4.76547874,11.0668645 4.23446916,11.0668645 3.8397145,10.7994065 C3.08442358,10.2865541 2.80119166,10.0942344 2.99001873,10.2224475 Z" id="路径" fill="#F33B3D"></path>
                    </g>
                </g>
            </g>
        </g>
    </g>
</svg>