<?xml version="1.0" encoding="UTF-8"?>
<svg width="40px" height="40px" viewBox="0 0 40 40" version="1.1" xmlns="http://www.w3.org/2000/svg" xmlns:xlink="http://www.w3.org/1999/xlink">
    <title>bianpinghuatubiaosheji-</title>
    <g id="智能代码评审" stroke="none" stroke-width="1" fill="none" fill-rule="evenodd">
        <g id="工作台-设计师助手" transform="translate(-1133.000000, -345.000000)" fill-rule="nonzero">
            <g id="编组-40" transform="translate(1061.000000, 330.000000)">
                <g id="bianpinghuatubiaosheji-" transform="translate(72.000000, 15.000000)">
                    <path d="M15.6680739,0.00489757362 L25.3319261,0.00489757362 C29.7653799,-0.0927642373 32.5699158,1.26668839 35.6010701,4.39577331 C38.7337837,7.42719641 40.0892097,12.2321583 39.9954627,16.6660052 L39.9954627,23.3304482 C40.0892097,27.7642952 38.7337838,32.569257 35.6010701,35.6006801 C32.5699158,38.7336714 27.7653799,40.0892176 23.3319261,39.9954623 L16.6680739,39.9954623 C12.2346201,40.0892176 7.43008423,38.7336715 4.39892989,35.6006801 C1.26621628,32.5731635 -0.0892097092,27.7682016 0.00453733118,23.3343547 L0.00453733118,16.6699117 C-0.0892097092,12.2321583 1.26621628,7.42719638 4.39892989,4.39577331 C7.43008423,1.26668839 11.2346201,-0.0927642373 15.6680739,0.00489757362 Z" id="路径" fill="#1A66FF"></path>
                    <path d="M4.39892989,4.39577331 C1.44199199,7.25921804 0.0670353581,11.7008779 0.00453733118,15.9198688 C5.39499221,15.9198688 9.76594802,11.544619 9.76594802,6.15368618 C9.76594802,4.48171571 9.34408632,2.90740708 8.60582837,1.53232854 C7.01994091,2.23158721 5.57467403,3.18086019 4.39892989,4.39577331 Z" id="路径" fill="#FFFFFF"></path>
                    <path d="M23.6717591,24.9203828 L23.6717591,27.2681731 C23.6717591,28.2408849 22.8827215,29.0299924 21.910096,29.0299924 L18.3867697,29.0299924 C17.4141441,29.0299924 16.6251065,28.2408848 16.6251065,27.2681731 L16.6251065,24.9203828 C16.6251065,24.7719368 16.6485433,24.6273973 16.6836984,24.4867642 C13.6291073,23.1976281 11.4846438,20.1701115 11.4846438,16.6464728 C11.4846438,11.9430792 15.2970234,8.13036154 20,8.13036154 C24.7029766,8.13036154 28.5153562,11.9430792 28.5153562,16.6464728 C28.5153562,20.0724497 26.4919826,23.0218368 23.5741059,24.3734765 C23.6326978,24.5453613 23.6717591,24.7289656 23.6717591,24.9203828 Z M17.566483,30.108179 L22.2655535,30.108179 C22.7538194,30.108179 23.1483381,30.5027328 23.1483381,30.9910419 C23.1483381,31.479351 22.7538193,31.8739048 22.2655535,31.8739048 L17.566483,31.8739048 C17.0782172,31.8739048 16.6836984,31.479351 16.6836984,30.9910419 C16.6876045,30.5027328 17.0821233,30.108179 17.566483,30.108179 Z" id="形状" fill="#FFB102"></path>
                    <g id="编组-36" transform="translate(15.000000, 12.000000)" fill="#FFFFFF">
                        <path d="M3.68975559,14.5659899 C3.99995626,14.85533 4.38362556,15 4.84076342,15 C5.2815749,15 5.66524421,14.8629441 5.99177125,14.5888325 C6.31829829,14.284264 6.48156177,13.9263959 6.48156177,13.5152284 C6.48156177,13.0736041 6.32646143,12.7233503 6.01626077,12.464467 C5.72238639,12.1903553 5.33055394,12.0532995 4.84892657,12.0532995 C4.37546234,12.0532995 3.99179312,12.1903554 3.69791874,12.464467 C3.38771807,12.7233503 3.23261774,13.0736041 3.23261774,13.5152284 C3.22445459,13.9263959 3.37955493,14.2766498 3.68975559,14.5659899 L3.68975559,14.5659899 Z" id="路径"></path>
                        <path d="M8.67745612,1.08883243 C7.81215945,0.35786797 6.66115162,0 5.23259587,0 C3.59996067,0 2.31834203,0.441624382 1.38773994,1.31725888 C0.457137856,2.1852792 0,3.36548223 0,4.85786805 L2.31834194,4.85786805 C2.31834194,3.95177665 2.51425817,3.25126908 2.91425384,2.75634518 C3.35506533,2.16243657 4.07342482,1.87309642 5.07749554,1.87309642 C5.88564995,1.87309642 6.51421451,2.07868016 6.955026,2.48984773 C7.37951119,2.91624366 7.5917537,3.47969546 7.5917537,4.18020303 C7.5917537,4.6903553 7.38767433,5.19289339 6.97135237,5.68781729 L6.59584621,6.07614215 C5.20810627,7.23350255 4.37546234,8.07868024 4.09791433,8.63451777 C3.80403996,9.14467004 3.65710285,9.79187817 3.65710285,10.5913706 L3.65710285,10.9416244 L6.02442391,10.9416244 L6.02442391,10.5913706 C6.02442391,10.0812183 6.13870835,9.63197976 6.37544047,9.22842638 C6.57951984,8.83248725 6.88972059,8.47461928 7.30604255,8.15482231 C8.35092908,7.30203044 8.9713305,6.76903554 9.1590835,6.54822335 C9.72234265,5.87817259 9.99989066,5.04060916 9.99989066,4.03553299 C10.0080538,2.78680199 9.55907917,1.80456853 8.67745612,1.08883243 L8.67745612,1.08883243 Z" id="路径"></path>
                    </g>
                    <path d="M28.4567643,17.6426234 C24.7303194,19.0606731 22.0780594,22.6663478 22.0780594,26.8931516 C22.0780594,27.6119427 22.156182,28.3151078 22.3007086,28.9909277 C23.081934,28.8112299 23.667853,28.1119712 23.667853,27.2720795 L23.667853,24.9242892 C23.667853,24.7328721 23.6287917,24.5492678 23.5701998,24.377383 C26.2029292,23.1546569 28.1091191,20.6388882 28.4567643,17.6426234 L28.4567643,17.6426234 Z M22.6444478,30.1941214 C22.7772561,30.5652363 22.929595,30.9246318 23.1014646,31.2723079 C23.1327136,31.182459 23.1483381,31.0887037 23.1483381,30.9871354 C23.1483381,30.6394593 22.9413134,30.3347544 22.6444478,30.1941214 Z" id="形状" fill="#FFB102" opacity="0.8118337"></path>
                </g>
            </g>
        </g>
    </g>
</svg>