<?xml version="1.0" encoding="UTF-8"?>
<svg width="20px" height="20px" viewBox="0 0 20 20" version="1.1" xmlns="http://www.w3.org/2000/svg" xmlns:xlink="http://www.w3.org/1999/xlink">
    <title>生成任务</title>
    <g id="智能代码评审" stroke="none" stroke-width="1" fill="none" fill-rule="evenodd">
        <g id="工作台-智能助手-多选" transform="translate(-1089.000000, -291.000000)" fill-rule="nonzero">
            <g id="项目信息" transform="translate(1089.000000, 291.000000)">
                <rect id="矩形" fill="#000000" opacity="0" x="0" y="0" width="18.6294117" height="18.6294117"></rect>
                <path d="M5.39356518,1.12795266 L15.7527168,1.12795266 C16.6316754,1.12795266 17.3222829,1.81856017 17.3222829,2.69751873 L17.3222829,8.6618776 L2.88228291,8.6618776 L2.88228291,3.63925446 C2.88228291,2.25803945 4.01235016,1.12795266 5.39356518,1.12795266 Z" id="路径" fill="#B5F5EC"></path>
                <path d="M12.4256849,1.12795266 L4.45190478,1.12795266 C3.57290478,1.12795266 2.88226472,1.81859273 2.88226472,2.69759273 L2.88226472,17.1383126 C2.88226472,18.0173126 3.57290478,18.7079527 4.45190478,18.7079527 L15.6905449,18.7079527 C16.5695449,18.7079527 17.2601849,18.0173126 17.2601849,17.1383126 L17.2601849,5.96245266 L12.4256849,1.12795266 Z" id="路径" fill="#36CFC9"></path>
                <path d="M12.3,1.1 L12.3,4.73819018 C12.3,5.36544618 12.8018321,5.93 13.4918293,5.93 L17.13,5.93 L12.3,1.1 Z" id="路径" fill="#08979C"></path>
                <path d="M5.22132926,7.56039381 C5.22132926,7.87377148 5.38851425,8.1633444 5.65990727,8.32003323 C5.93130029,8.47672207 6.26567029,8.47672207 6.53706331,8.32003323 C6.80845633,8.1633444 6.97564132,7.87377148 6.97564132,7.56039381 C6.97564132,7.24701614 6.80845633,6.95744322 6.53706331,6.80075439 C6.26567029,6.64406555 5.93130029,6.64406555 5.65990727,6.80075439 C5.38851425,6.95744322 5.22132926,7.24701614 5.22132926,7.56039381 L5.22132926,7.56039381 Z M9.31470586,6.97564132 L12.8233118,6.97564132 C13.1741778,6.97564132 13.4080825,7.20954595 13.4080825,7.56039381 C13.4080825,7.91124167 13.1741778,8.14516449 12.8233118,8.14516449 L9.31470586,8.14516449 C8.96383981,8.14516449 8.72993518,7.91125986 8.72993518,7.56039381 C8.72993518,7.20952776 8.96383981,6.97565951 9.31470586,6.97565951 L9.31470586,6.97564132 Z M9.31470586,9.89947655 L12.8233118,9.89947655 C13.1741778,9.89947655 13.4080825,10.1333812 13.4080825,10.4842472 C13.4080825,10.8351133 13.1741778,11.0690179 12.8233118,11.0690179 L9.31470586,11.0690179 C8.96383981,11.0690179 8.72993518,10.8350951 8.72993518,10.4842472 C8.72993518,10.1333994 8.96383981,9.89947655 9.31470586,9.89947655 L9.31470586,9.89947655 Z M9.31470586,12.8233118 L12.8233118,12.8233118 C13.1741778,12.8233118 13.4080825,13.0572164 13.4080825,13.4080825 C13.4080825,13.7589485 13.1741778,13.9928531 12.8233118,13.9928531 L9.31470586,13.9928531 C8.96383981,13.9928531 8.72993518,13.7589485 8.72993518,13.4080825 C8.72993518,13.0572164 8.96383981,12.8233118 9.31470586,12.8233118 Z M5.22132926,10.4842472 C5.22132926,10.7976249 5.38851425,11.0871978 5.65990727,11.2438867 C5.93130029,11.4005755 6.26567029,11.4005755 6.53706331,11.2438867 C6.80845633,11.0871978 6.97564132,10.7976249 6.97564132,10.4842472 C6.97564132,10.1708696 6.80845633,9.88129665 6.53706331,9.72460781 C6.26567029,9.56791897 5.93130029,9.56791897 5.65990727,9.72460781 C5.38851425,9.88129665 5.22132926,10.1708696 5.22132926,10.4842472 L5.22132926,10.4842472 Z M5.22132926,13.4080825 C5.22132926,13.7214601 5.38851425,14.0110331 5.65990727,14.1677219 C5.93130029,14.3244107 6.26567029,14.3244107 6.53706331,14.1677219 C6.80845633,14.0110331 6.97564132,13.7214601 6.97564132,13.4080825 C6.97564132,13.0947048 6.80845633,12.8051319 6.53706331,12.648443 C6.26567029,12.4917542 5.93130029,12.4917542 5.65990727,12.648443 C5.38851425,12.8051319 5.22132926,13.0947048 5.22132926,13.4080825 L5.22132926,13.4080825 Z" id="形状" fill="#B5F5EC"></path>
            </g>
        </g>
    </g>
</svg>