<?xml version="1.0" encoding="UTF-8"?>
<svg width="16px" height="16px" viewBox="0 0 16 16" version="1.1" xmlns="http://www.w3.org/2000/svg" xmlns:xlink="http://www.w3.org/1999/xlink">
    <title>更多</title>
    <g id="智能代码评审" stroke="none" stroke-width="1" fill="none" fill-rule="evenodd">
        <g id="工作台-智能助手-多选" transform="translate(-1189.000000, -203.000000)" fill-rule="nonzero">
            <g id="更多" transform="translate(1189.000000, 203.000000)">
                <rect id="矩形" fill="#000000" opacity="0" x="0" y="0" width="16" height="16"></rect>
                <path d="M1.03889063,3.30909375 L14.9610937,3.30909375 C15.4017031,3.30909375 15.7576563,2.96160938 15.7576563,2.53332812 C15.7576563,2.10525 15.4019062,1.75757812 14.9610937,1.75757812 L1.03890625,1.75757812 C0.599109375,1.75757812 0.24234375,2.10504688 0.24234375,2.53332812 C0.24234375,2.96160938 0.599109375,3.30909375 1.03890625,3.30909375 L1.03889063,3.30909375 Z M14.9609219,7.187875 L1.038875,7.187875 C0.5980625,7.187875 0.2423125,7.53535937 0.2423125,7.96364063 C0.2423125,8.39192188 0.5980625,8.73939063 1.038875,8.73939063 L14.9610937,8.73939063 C15.4017031,8.73939063 15.7576563,8.39192188 15.7576563,7.96364063 C15.7574531,7.53535937 15.3994844,7.187875 14.9608906,7.187875 L14.9609219,7.187875 Z M14.9609219,12.6822188 L1.038875,12.6822188 C0.59928125,12.6822188 0.2423125,13.0297031 0.2423125,13.4579844 C0.2423125,13.8862656 0.599078125,14.2337344 1.038875,14.2337344 L14.9610937,14.2337344 C15.4017031,14.2337344 15.7576563,13.8862656 15.7576563,13.4579844 C15.7574531,13.0299062 15.4017031,12.6822188 14.9608906,12.6822188 L14.9609219,12.6822188 Z" id="形状" fill="#FFFFFF"></path>
            </g>
        </g>
    </g>
</svg>