<?xml version="1.0" encoding="UTF-8"?>
<svg width="30px" height="30px" viewBox="0 0 30 30" version="1.1" xmlns="http://www.w3.org/2000/svg" xmlns:xlink="http://www.w3.org/1999/xlink">
    <title>运维助手</title>
    <g id="智能代码评审" stroke="none" stroke-width="1" fill="none" fill-rule="evenodd">
        <g id="工作台-智能助手" transform="translate(-581.000000, -235.000000)" fill-rule="nonzero">
            <g id="个人设置" transform="translate(581.000000, 235.000000)">
                <path d="M7.86756959,9.03492339 C7.86756959,12.3679195 10.5694968,15.0698468 13.902493,15.0698468 C17.2354891,15.0698468 19.9374164,12.3679195 19.9374164,9.03492339 C19.9374164,5.70192723 17.2354891,3 13.902493,3 C10.5694968,3 7.86756959,5.70192723 7.86756959,9.03492339 Z" id="路径" fill="#80B7F9"></path>
                <path d="M16.1101078,14.083187 L11.6963334,14.083187 C6.34176458,14.083187 2.00080363,18.4234964 2,23.7780651 L2,24.1971772 C2,25.7354832 3.24704334,26.9825265 4.78534926,26.9825265 L23.0196367,26.9825265 C24.5579426,26.9825265 25.804986,25.7354832 25.804986,24.1971772 L25.804986,23.7780651 C25.804986,18.4237318 21.4644412,14.083187 16.1101078,14.083187 Z" id="路径" fill="#80B7F9"></path>
                <path d="M10.6820239,14.135576 C12.6493674,15.3794462 15.1570738,15.3794462 17.1244174,14.135576 C16.7860072,14.10033 16.4459825,14.082843 16.1057421,14.083182 L11.6963334,14.083182 C11.3575482,14.0829581 11.0189827,14.100445 10.6820239,14.135576 L10.6820239,14.135576 Z" id="路径" fill="#3E8BF8"></path>
                <path d="M24.1940238,15.4278384 L19.6958448,15.4278384 C19.0203938,15.4282713 18.3964135,15.7887932 18.0586881,16.3737511 L15.8045052,20.2694564 C15.4665632,20.8547893 15.4665632,21.5759491 15.8045052,22.1612819 L18.0528671,26.0569873 C18.3923714,26.6426283 19.0189153,27.002239 19.6958448,27 L24.1940238,27 C24.8686549,26.999338 25.4918908,26.6394803 25.8297252,26.055532 L28.0795423,22.1598267 C28.4174844,21.5744938 28.4174844,20.853334 28.0795423,20.2680012 L25.8297252,16.3766616 C25.4929997,15.7910329 24.8695551,15.4293907 24.1940238,15.4278384 L24.1940238,15.4278384 Z" id="路径" fill="#95C9FC"></path>
                <path d="M21.0434067,15.4278384 L19.7031211,15.4278384 C19.02767,15.4282713 18.4036898,15.7887932 18.0659644,16.3737511 L15.8045052,20.2694564 C15.4665632,20.8547893 15.4665632,21.5759491 15.8045052,22.1612819 L18.0528671,26.0569873 C18.3456762,26.5639331 18.8566888,26.9067576 19.4368102,26.985437 L23.0138157,26.985437 C24.5521216,26.985437 25.799174,25.7383937 25.799174,24.2000877 L25.799174,23.7809756 C25.8038418,20.3511835 23.9951835,17.1744091 21.0434067,15.4278384 L21.0434067,15.4278384 Z" id="路径" fill="#3E8BF8"></path>
                <path d="M22.0839107,24.1447882 C20.8961283,24.1447882 19.8253027,23.4292854 19.370758,22.3319176 C18.9162134,21.2345498 19.1674646,19.9714247 20.0073535,19.1315358 C20.8472425,18.2916468 22.1103675,18.0403956 23.2077353,18.4949403 C24.3051032,18.9494849 25.020606,20.0203106 25.020606,21.2080929 C25.0190016,22.8293199 23.7051377,24.1431839 22.0839107,24.1447882 L22.0839107,24.1447882 Z M22.0839107,20.3087482 C21.5872163,20.3087482 21.184566,20.7113986 21.184566,21.2080929 C21.184566,21.7047873 21.5872163,22.1074377 22.0839107,22.1074377 C22.5806051,22.1074377 22.9832566,21.7047873 22.9832566,21.2080929 C22.9836417,20.9691858 22.8891065,20.7399103 22.7204466,20.5707046 C22.5517867,20.4014988 22.3228178,20.3062233 22.0839107,20.3058377 L22.0839107,20.3087482 Z" id="形状" fill="#FFFFFF"></path>
            </g>
        </g>
    </g>
</svg>