<?xml version="1.0" encoding="UTF-8"?>
<svg width="30px" height="30px" viewBox="0 0 30 30" version="1.1" xmlns="http://www.w3.org/2000/svg" xmlns:xlink="http://www.w3.org/1999/xlink">
    <title>需求设计</title>
    <g id="智能代码评审" stroke="none" stroke-width="1" fill="none" fill-rule="evenodd">
        <g id="工作台-智能助手" transform="translate(-579.000000, -171.000000)">
            <g id="编组-38" transform="translate(564.000000, 159.000000)">
                <rect id="矩形" stroke="#E1E2E4" x="0.5" y="0.5" width="187" height="53" rx="8"></rect>
                <g id="登记" transform="translate(16.000000, 12.500000)" fill-rule="nonzero">
                    <path d="M4.26191088,0 L20.7380891,0 C23.579363,0 25,1.54171923 25,4.62515769 L25,24.3748423 C25,27.4582808 23.579363,29 20.7380891,29 L4.26191088,29 C1.42063696,29 0,27.4582808 0,24.3748423 L0,4.62515769 C0,1.54171923 1.42063696,0 4.26191088,0 Z" id="路径" fill="#A5ADF6"></path>
                    <path d="M18.6760447,9.86458333 L5.32395536,9.86458333 C4.85095167,9.86458333 4.41387823,9.5915901 4.17737639,9.14843751 C3.94087454,8.70528492 3.94087454,8.15929841 4.17737639,7.71614582 C4.41387823,7.27299323 4.85095167,7 5.32395536,7 L18.6760447,7 C19.407245,7 20,7.64125884 20,8.43229167 C20,9.22332449 19.407245,9.86458333 18.6760447,9.86458333 Z M13.6052959,18 L5.33057513,18 C4.5993748,18 4.00661982,17.3587412 4.00661982,16.5677083 C4.00661982,15.7766755 4.5993748,15.1354167 5.33057513,15.1354167 L13.6052959,15.1354167 C14.3364962,15.1354167 14.9292512,15.7766755 14.9292512,16.5677083 C14.9292512,17.3587412 14.3364962,18 13.6052959,18 Z" id="形状" fill="#FFFFFF"></path>
                    <path d="M17.8884507,26.6433156 L14.6715465,26.9940858 C14.4880887,27.0211241 14.3034065,26.9544839 14.1726133,26.8140521 C14.0418202,26.6736203 13.9800407,26.4756363 14.0057113,26.2791827 L14.3316119,22.8349535 C14.3753421,22.4314498 14.5464402,22.0560546 14.8165645,21.7709505 L23.4443544,12.5273207 C24.0400196,11.8892531 24.9428735,11.8207693 25.4590127,12.37365 L27.6498757,14.712118 C28.1675742,15.2666689 28.1036416,16.2337925 27.5079764,16.8718602 L18.8786272,26.11549 C18.6146401,26.4075647 18.2651522,26.5938634 17.8884507,26.6433156 L17.8884507,26.6433156 Z" id="路径" fill="#A5ADF6"></path>
                    <path d="M25,12.0652977 C24.4415762,11.892331 23.8398351,12.0691034 23.4416381,12.5230948 L14.8161048,21.7692601 C14.5461488,22.0544424 14.3751572,22.4299405 14.3314543,22.8335549 L14.0057566,26.2803997 C13.9799709,26.476796 14.0417325,26.674772 14.1725377,26.8150143 C14.3033428,26.9552567 14.4879967,27.0214741 14.6711772,26.9938281 L17.8860778,26.6429617 C18.2626395,26.5964986 18.6129856,26.41311 18.8787544,26.1233452 L25,19.5688265 L25,12.0652977 Z" id="路径" fill="#635DF7"></path>
                </g>
            </g>
        </g>
    </g>
</svg>