<?xml version="1.0" encoding="UTF-8"?>
<svg width="16px" height="16px" viewBox="0 0 16 16" version="1.1" xmlns="http://www.w3.org/2000/svg" xmlns:xlink="http://www.w3.org/1999/xlink">
    <title>下拉</title>
    <g id="智能代码评审" stroke="none" stroke-width="1" fill="none" fill-rule="evenodd">
        <g id="智能助手-开发助手" transform="translate(-416.000000, -243.000000)">
            <g id="编组-43" transform="translate(164.000000, 233.000000)">
                <g id="编组-36" stroke="#E0E0E0">
                    <rect id="矩形" x="0.5" y="0.5" width="279" height="63"></rect>
                </g>
                <g id="下拉" transform="translate(260.000000, 18.000000) scale(-1, 1) rotate(90.000000) translate(-260.000000, -18.000000) translate(252.000000, 10.000000)" fill-rule="nonzero">
                    <rect id="矩形" fill="#000000" opacity="0" x="0" y="0" width="16" height="16"></rect>
                    <path d="M12.1640014,6.304 C12.1643125,6.43142336 12.113946,6.5537419 12.024,6.644 L8.424,10.244 C8.3339351,10.3343782 8.21159271,10.3851785 8.084,10.3851785 C7.95640729,10.3851785 7.8340649,10.3343782 7.744,10.244 L4.144,6.644 C4.0225297,6.5225297 3.97509014,6.34548288 4.01955136,6.17955136 C4.06401257,6.01361984 4.19361984,5.88401257 4.35955136,5.83955136 C4.52548288,5.79509014 4.7025297,5.8425297 4.824,5.964 L8.084,9.224 L11.344,5.964 C11.4826748,5.83974293 11.6807003,5.80689635 11.8520661,5.87972682 C12.0234319,5.95255729 12.137217,6.11792337 12.144,6.304 L12.1640014,6.304 Z" id="路径" fill="#999999"></path>
                </g>
            </g>
        </g>
    </g>
</svg>