<?xml version="1.0" encoding="UTF-8"?>
<svg width="48px" height="37px" viewBox="0 0 48 37" version="1.1" xmlns="http://www.w3.org/2000/svg" xmlns:xlink="http://www.w3.org/1999/xlink">
    <title>编组 33</title>
    <g id="智能代码评审" stroke="none" stroke-width="1" fill="none" fill-rule="evenodd">
        <g id="工作台-设计师助手" transform="translate(-748.000000, -347.000000)">
            <g id="编组-39" transform="translate(489.000000, 330.000000)">
                <g id="编组-41" transform="translate(191.000000, 0.000000)">
                    <g id="编组-33" transform="translate(68.000000, 17.000000)">
                        <path d="M8,0 L40,0 C44.418278,-8.11624501e-16 48,3.581722 48,8 L48,29 C48,33.418278 44.418278,37 40,37 L8,37 C3.581722,37 5.41083001e-16,33.418278 0,29 L0,8 C-5.41083001e-16,3.581722 3.581722,8.11624501e-16 8,0 Z" id="矩形" fill="#FFFCFA"></path>
                        <g id="tuku" transform="translate(4.714286, 4.000000)" fill-rule="nonzero">
                            <path d="M27.844898,4.09090909 C27.844898,6.35025579 29.6540331,8.18181818 31.8857143,8.18181818 C34.1173955,8.18181818 35.9265306,6.35025579 35.9265306,4.09090909 C35.9265306,1.83156239 34.1173955,0 31.8857143,0 C29.6540331,0 27.844898,1.83156239 27.844898,4.09090909 Z" id="路径" fill="#FF5252"></path>
                            <path d="M10.1259916,7.40672899 L0.582359943,23.6488961 C-1.02498853,26.4600405 0.883737784,30 3.99797546,30 L23.185698,30 C26.2999357,30 28.208662,26.4600405 26.6013135,23.6488961 L17.0576819,7.40672899 C15.4503334,4.80381761 11.73334,4.80381761 10.1259916,7.40672899 Z" id="路径" fill="#2953FF"></path>
                            <path d="M23.8455309,15.6 L18.9364978,23.8573427 C17.3656072,26.5762238 19.2310398,30 22.2746403,30 L32.0927066,30 C35.1363071,30 37.0017398,26.5762238 35.4308491,23.8573427 L30.521816,15.6 C29.049106,12.9818182 25.3182408,12.9818182 23.8455309,15.6 L23.8455309,15.6 Z" id="路径" fill="#FCCA1E"></path>
                        </g>
                    </g>
                </g>
            </g>
        </g>
    </g>
</svg>