<?xml version="1.0" encoding="UTF-8"?>
<svg width="30px" height="30px" viewBox="0 0 30 30" version="1.1" xmlns="http://www.w3.org/2000/svg" xmlns:xlink="http://www.w3.org/1999/xlink">
    <title>SQL优化</title>
    <g id="智能代码评审" stroke="none" stroke-width="1" fill="none" fill-rule="evenodd">
        <g id="工作台-智能助手" transform="translate(-380.000000, -171.000000)">
            <g id="编组-38" transform="translate(364.000000, 159.000000)">
                <rect id="矩形" stroke="#E1E2E4" x="0.5" y="0.5" width="187" height="53" rx="8"></rect>
                <g id="报告搜索" transform="translate(18.000000, 13.000000)" fill-rule="nonzero">
                    <path d="M3.79905127,2.89649654 L17.67503,2.89649654 C20.2077308,2.89649654 21.4740813,4.16284696 21.4740813,6.69554781 L21.4740813,24.2009487 C21.4740813,26.7336496 20.2077308,28 17.67503,28 L3.79905127,28 C1.26635042,28 0,26.7336496 0,24.2009487 L0,6.69554781 C0,4.16284696 1.26635042,2.89649654 3.79905127,2.89649654 Z" id="路径" fill="#80B7F9"></path>
                    <path d="M7.58209979,0 L20.685146,0 C23.2178469,0 24.4841973,1.26635042 24.4841973,3.79905127 L24.4841973,21.3044522 C24.4841973,23.837153 23.2178469,25.1035035 20.685146,25.1035035 L7.58209979,25.1035035 C5.04939894,25.1035035 3.78304852,23.837153 3.78304852,21.3044522 L3.78304852,3.79905127 C3.78304852,1.26635042 5.04939894,0 7.58209979,0 Z" id="路径" fill="#80B7F9"></path>
                    <path d="M17.692633,2.89649654 L3.93027376,2.89649654 C3.83794043,3.2436909 3.79104989,3.60141673 3.79104989,3.96067897 L3.79104989,21.1428245 C3.79104989,23.3303995 5.48414014,25.1035035 7.57249814,25.1035035 L20.7091501,25.1035035 C20.9270613,25.1035035 21.1445147,25.0835459 21.3588615,25.0442933 C21.4406936,24.7155679 21.4820826,24.3780789 21.4820826,24.039321 L21.4820826,6.85557524 C21.4740813,4.6696005 19.780991,2.89649654 17.692633,2.89649654 Z" id="路径" fill="#3E8BF8"></path>
                    <path d="M13.7463565,14.7097217 L3.78304852,14.7097217 C3.07600283,14.7097217 2.50282906,14.1365479 2.50282906,13.4295022 C2.50282906,12.7224565 3.07600283,12.1492827 3.78304852,12.1492827 L13.7463565,12.1492827 C14.4534022,12.1492827 15.026576,12.7224565 15.026576,13.4295022 C15.026576,14.1365479 14.4534022,14.7097217 13.7463565,14.7097217 Z M13.7463565,8.92312968 L3.78304852,8.92312968 C3.07600283,8.92312968 2.50282906,8.3499559 2.50282906,7.64291021 C2.50282906,6.93586453 3.07600283,6.36269075 3.78304852,6.36269075 L13.7463565,6.36269075 C14.4534022,6.36269075 15.026576,6.93586453 15.026576,7.64291021 C15.026576,8.3499559 14.4534022,8.92312968 13.7463565,8.92312968 Z M10.5746128,20.4979139 L3.78304852,20.4979139 C3.07600283,20.4979139 2.50282906,19.9247401 2.50282906,19.2176945 C2.50282906,18.5106488 3.07600283,17.937475 3.78304852,17.937475 L10.5746128,17.937475 C11.2816585,17.937475 11.8548323,18.5106488 11.8548323,19.2176945 C11.8548323,19.9247401 11.2816585,20.4979139 10.5746128,20.4979139 L10.5746128,20.4979139 Z" id="形状" fill="#FFFFFF"></path>
                    <path d="M25.8892382,24.9994856 L24.6602275,23.6744585 C26.3023077,21.3649931 25.9312163,18.1876781 23.801128,16.3187795 C21.6710397,14.4498809 18.472449,14.4952252 16.3961942,16.4237542 C14.3199394,18.3522832 14.0390642,21.5388406 15.7459509,23.80083 C17.4528375,26.0628195 20.5941777,26.6669891 23.018346,25.1995199 L24.2457564,26.5229468 C24.6664486,26.9767817 25.3753929,27.0036493 25.8292279,26.5829571 C26.2830628,26.1622649 26.3099303,25.4533206 25.8892382,24.9994856 L25.8892382,24.9994856 Z M16.8572898,20.4595073 C16.8572898,19.1247967 17.6617344,17.9216628 18.895157,17.4116418 C20.1285796,16.9016209 21.5478049,17.1852675 22.490441,18.130196 C23.433077,19.0751245 23.7132756,20.4950346 23.2002603,21.7272147 C22.6872449,22.9593948 21.4821606,23.7609108 20.1474538,23.7576825 C18.3294188,23.7523828 16.8581638,22.2775499 16.8572898,20.4595073 Z" id="形状" fill="#80B7F9"></path>
                </g>
            </g>
        </g>
    </g>
</svg>