<?xml version="1.0" encoding="UTF-8"?>
<svg width="58.2211843px" height="46px" viewBox="0 0 58.2211843 46" version="1.1" xmlns="http://www.w3.org/2000/svg" xmlns:xlink="http://www.w3.org/1999/xlink">
    <title>shujuduibi</title>
    <g id="智能代码评审" stroke="none" stroke-width="1" fill="none" fill-rule="evenodd">
        <g id="工作台-设计师助手" transform="translate(-551.000000, -342.000000)" fill-rule="nonzero">
            <g id="编组-39" transform="translate(489.000000, 330.000000)">
                <g id="shujuduibi" transform="translate(62.000000, 12.000000)">
                    <path d="M54,13.4790253 L54,43.1445254 C54,44.4665398 53.0924532,45.550562 51.8645445,45.8942463 C51.6243353,45.947154 51.3840639,46 51.1171787,46 L2.88282135,46 C1.30793691,46 0.0266760542,44.7308933 0.0266760542,43.1709484 L0.0266760542,13.4790253 C0.0266760542,11.9190804 1.30793691,10.6499737 2.88282135,10.6499737 L51.1705308,10.6499737 C51.4374783,10.6499737 51.6776874,10.6763967 51.9179589,10.7557274 C53.1191293,11.0465657 54,12.1570109 54,13.4790253 Z" id="路径" fill="#FFFFFF"></path>
                    <path d="M54,13.4790253 L54,16.3080769 L0,16.3080769 L0,13.4790253 C0,11.9190804 1.28126086,10.6499737 2.85614529,10.6499737 L51.1437924,10.6499737 C52.7186768,10.6499737 54,11.9190804 54,13.4790253 L54,13.4790253 Z" id="路径" fill="#2953FF"></path>
                    <polygon id="路径" fill="#979797" points="3.28321147 18.0002603 17.4305577 18.0002603 17.4305577 19.9567972 3.28321147 19.9567972"></polygon>
                    <polygon id="路径" fill="#FFFFFF" points="28.8017867 27.6243451 50.9036456 27.6243451 50.9036456 43.1445254 28.8017867 43.1445254"></polygon>
                    <polygon id="路径" fill="#2953FF" points="29.8695145 40.236143 49.9693604 40.236143 49.9693604 42.1926799 29.8694522 42.1926799"></polygon>
                    <polygon id="路径" fill="#FF5252" points="29.8695145 36.455246 32.3786218 36.455246 32.3786218 38.4117829 29.8695145 38.4117829"></polygon>
                    <polygon id="路径" fill="#FEC355" points="29.8695145 32.7007719 39.9861587 32.7007719 39.9861587 34.6573088 29.8695145 34.6573088"></polygon>
                    <polygon id="路径" fill="#979797" points="29.8695145 28.9199366 47.2466577 28.9199366 47.2466577 30.8764117 29.8695145 30.8764117"></polygon>
                    <path d="M2.13539321,13.4526023 C2.13539321,14.4309655 2.93610896,15.2240856 3.9238419,15.2240856 C4.91157483,15.2240856 5.71229058,14.4309655 5.71229058,13.4526023 C5.71229058,12.4742391 4.91157483,11.681119 3.9238419,11.681119 C2.93610896,11.681119 2.13539321,12.4742391 2.13539321,13.4526023 L2.13539321,13.4526023 Z" id="路径" fill="#FFFFFF"></path>
                    <path d="M6.91346095,13.4526023 C6.91346095,14.4309655 7.7141767,15.2240856 8.70190964,15.2240856 C9.68964257,15.2240856 10.4903583,14.4309655 10.4903583,13.4526023 C10.4903583,12.4742391 9.68964257,11.681119 8.70190964,11.681119 C7.7141767,11.681119 6.91346095,12.4742391 6.91346095,13.4526023 Z M46.3989116,11.721709 L45.7849884,13.6782459 L42.8754286,22.9057387 C39.9926073,22.006801 37.4566993,20.0238411 35.9352916,17.1418817 C34.4137593,14.2599224 34.2269023,11.0607018 35.1343867,8.20522717 L45.0375602,11.298694 L46.3989116,11.721709 L46.3989116,11.721709 Z" id="形状" fill="#FEC355"></path>
                    <path d="M52.0845261,24.2541761 C51.2036554,24.7036141 50.2694325,25.0473601 49.3351474,25.2589293 C47.2263679,25.7612751 45.0642363,25.6555213 43.0622857,25.0209371 L46.2120545,15.0795911 L46.6124447,13.8368457 L52.0845261,24.2541761 L52.0845261,24.2541761 Z" id="路径" fill="#2953FF"></path>
                    <path d="M51.870993,22.1125548 L46.3988493,11.721709 L45.0374979,11.298694 L35.1077107,8.20522717 C36.0151951,5.34969081 38.0172081,2.83790043 40.9267678,1.33086325 C41.2203914,1.17220176 41.540691,1.04002501 41.8343146,0.907786529 C44.4769891,-0.202658674 47.3598105,-0.255566415 49.9223322,0.537679285 C52.8051535,1.43655526 55.3410615,3.41957691 56.8624692,6.30153626 C59.9055339,12.0389702 57.6633741,19.1248416 51.8709307,22.1125548 L51.870993,22.1125548 Z" id="路径" fill="#FF5252"></path>
                    <polygon id="路径" fill="#FFFFFF" points="3.12303049 21.2788117 25.2248893 21.2788117 25.2248893 43.1710101 3.12303049 43.1710101"></polygon>
                    <polygon id="路径" fill="#57ABFB" points="5.12504343 31.2994885 9.3959545 31.2994885 9.3959545 41.90178 5.12504343 41.90178"></polygon>
                    <polygon id="路径" fill="#FEC355" points="12.0118283 27.7830066 16.2827394 27.7830066 16.2827394 41.9282647 12.0118283 41.9282647"></polygon>
                    <polygon id="路径" fill="#FF5252" points="18.9253516 23.8963558 23.1962627 23.8963558 23.1962627 41.9282647 18.9253516 41.9282647"></polygon>
                </g>
            </g>
        </g>
    </g>
</svg>