<?xml version="1.0" standalone="no"?><!DOCTYPE svg PUBLIC "-//W3C//DTD SVG 1.1//EN" "http://www.w3.org/Graphics/SVG/1.1/DTD/svg11.dtd"><svg t="1708594117426" class="icon" viewBox="0 0 1024 1024" version="1.1" xmlns="http://www.w3.org/2000/svg" p-id="2517" xmlns:xlink="http://www.w3.org/1999/xlink" width="200" height="200"><path d="M941.578087 406.004012c-5.199977-1.699992-9.099959-6.099973-10.399954-11.499949C881.878353 186.609989 694.983185 32.013677 471.990178 32.013677c-35.799841 0-70.798685 3.999982-104.297535 11.599949-5.599975 1.299994-11.399949-0.499998-15.299932-4.699979-21.499904-23.499895-52.298767-38.399829-86.497615-38.899827-66.097706-0.999996-121.096461 52.399767-121.896457 118.497472-0.1 10.899951 1.199995 21.399905 3.799983 31.39986 1.399994 5.499976-0.399998 11.29995-4.399981 15.299932C54.901036 251.006702 0.00228 371.104167 0.00228 504.000576 0.00228 644.59795 61.501006 770.894387 158.998572 857.292002c4.59998 4.099982 6.399972 10.299954 4.899978 16.199928-2.599988 9.799956-3.899983 19.999911-3.899982 30.598864 0.1 66.497704 54.997755 120.696463 121.496458 119.896466 41.898813-0.499998 78.59765-22.4999 99.697557-55.498753 0.399998-0.699997 1.199995-0.999996 1.999991-0.899996 28.798872 5.499976 58.39774 8.299963 88.797604 8.299963 210.794061 0 389.289266-138.196385 449.887997-328.890535 1.699992-5.299976 5.899974-9.399958 11.299949-10.699953 52.197768-12.999942 90.796596-60.198732 90.796596-116.397481 0-52.997764-34.498846-98.096563-82.397633-113.896493zM208.495352 112.31032c3.799983-27.299878 27.199879-48.298785 55.499752-48.298785 8.498962 0 16.598926 1.899992 23.798894 5.299976 18.999915 8.99996 32.198857 28.299874 32.198857 50.699775 0 1.799992-0.1 3.599984-0.299999 5.299976-2.699988 28.397874-26.699881 50.697774-55.698752 50.697774-9.399958 0-18.199919-2.29999-25.899884-6.399971-17.89892-9.399958-30.098866-28.099875-30.098866-49.598779 0-2.599988 0.199999-5.199977 0.499998-7.699966z m105.097532 836.478275c-9.399958 7.099968-20.999906 11.19995-33.599851 11.19995-30.297865 0-55.097755-24.199892-55.99775-54.299758v-1.699993c0-23.498895 14.499935-43.597806 34.999844-51.897768 6.499971-2.599988 13.598939-4.099982 20.998906-4.099982 25.299887 0 46.798792 16.899925 53.598761 39.999822 1.499993 5.099977 2.399989 10.498953 2.39999 15.998928 0 18.299919-8.799961 34.499846-22.3999 44.798801z m534.28562-285.992727c-20.499909 48.599784-49.998777 92.197589-87.49761 129.696423-37.398833 37.499833-80.997639 66.898702-129.596423 87.49761-50.298776 21.299905-103.697538 31.999858-158.795293 31.999858-23.799894 0-47.299789-1.999991-70.298687-5.999973-0.999996-0.199999-1.699992-0.999996-1.699992-1.999992 0-66.298705-53.698761-119.996466-119.996466-119.996465-24.59989 0-47.499788 7.399967-66.498704 20.09991-6.099973 4.098982-14.299936 3.398985-19.699912-1.699992-3.499984-3.199986-6.899969-6.599971-10.298954-9.899956-37.499833-37.499833-66.898702-81.098639-87.49761-129.697423-21.299905-50.298776-31.999858-103.696538-31.999858-158.795292s10.799952-108.497517 31.999858-158.796293c19.199915-45.498797 46.198794-86.597614 80.397641-122.396455l0.699997-0.699997c5.399976-5.599975 13.999938-6.399972 20.39991-2.19999 19.299914 12.899943 42.59881 20.29991 67.497699 20.09991 64.898711-0.499998 118.097474-53.399762 118.89747-118.297473v-2.799988c-0.1-7.799965 5.399976-14.599935 13.099942-16.099928 24.498891-4.49998 49.49778-6.79997 74.897667-6.79997 55.097755 0 108.496517 10.799952 158.795292 31.999858 48.598784 20.499909 92.197589 49.998777 129.696423 87.49761 37.499833 37.499833 66.898702 81.097639 87.49761 129.696423 6.399972 15.099933 11.899947 30.599864 16.299928 46.199794 2.19999 7.598966-1.699992 15.598931-8.99996 18.798916-41.998813 18.699917-71.297683 60.797729-71.297683 109.696512 0 45.799796 25.599886 85.597619 63.297718 105.797529 6.999969 3.799983 10.299954 12.099946 7.499967 19.599912-1.999991 5.999973-4.299981 11.699948-6.79997 17.499922z m92.497588-100.297553c-9.799956 8.399963-22.4999 13.49994-36.398838 13.49994-10.599953 0-20.499909-2.999987-28.99987-8.099964-16.198928-9.799956-26.99888-27.599877-26.99888-47.898787 0-21.699903 12.499944-40.598819 30.599864-49.898777 7.599966-3.899983 16.299927-6.099973 25.399886-6.099973 15.298932 0 29.29787 6.199972 39.397825 16.299927 10.199955 10.099955 16.599926 24.199892 16.599926 39.699823 0 16.998924-7.599966 32.298856-19.599913 42.497811zM480.390141 352.005252c42.69981 0 82.898631 16.599926 113.097496 46.898792 30.299865 30.199866 46.898791 70.397687 46.898791 113.097496s-16.599926 82.897631-46.899791 113.096496c-30.197866 30.299865-70.397687 46.898791-113.096496 46.898792s-82.897631-16.599926-113.096497-46.898792c-30.299865-30.199866-46.898791-70.397687-46.898791-113.096496s16.599926-82.898631 46.898791-113.097496 70.397687-46.898791 113.096497-46.898792z m0-63.998715c-123.696449 0-223.994003 100.297553-223.994003 223.995003S356.692692 735.995543 480.390141 735.995543 704.383143 635.697989 704.383143 512.00154 604.08659 288.006537 480.390141 288.006537z" p-id="2518" fill="#3875F6"></path></svg>